<svg width="255" height="21" viewBox="0 0 255 21" fill="none" xmlns="http://www.w3.org/2000/svg">
<g clip-path="url(#clip0_5518:64200)">
<path d="M28.0756 9.23368C28.6136 9.83147 28.8826 10.7205 28.8826 11.9007C28.8826 13.4699 28.4294 14.6505 27.5229 15.4427C26.6163 16.235 25.1094 16.6306 23.002 16.6296H6.04541V0.627441H22.8251C24.7409 0.627441 26.13 0.978604 26.9922 1.68093C27.8545 2.38325 28.2856 3.39918 28.2856 4.72871C28.2856 5.58072 28.0792 6.27186 27.6665 6.80213C27.2538 7.33239 26.6495 7.68721 25.8537 7.86659V8.04597C26.7969 8.24012 27.5375 8.63603 28.0756 9.23368ZM20.5481 5.78219C20.5481 4.99053 20.0838 4.59462 19.1552 4.59448H13.2966V6.97011H19.1552C20.0837 6.97011 20.5479 6.57414 20.5481 5.78219ZM20.9459 11.5198C20.9459 10.6533 20.4374 10.2201 19.4204 10.2201H13.2966V12.8196H19.4204C20.4374 12.8196 20.9459 12.3863 20.9459 11.5196V11.5198Z" fill="white"/>
<path d="M50.3604 15.7891C50.3781 16.0345 50.4418 16.2742 50.548 16.4954V16.6297H43.5178C43.3702 16.4206 43.2965 16.0172 43.2967 15.4196V15.0159C42.6924 15.6885 41.8007 16.219 40.6217 16.6073C39.4426 16.9956 38.0276 17.1898 36.3768 17.19C34.4017 17.19 32.7914 16.8724 31.5462 16.2371C30.3009 15.6019 29.6782 14.5598 29.6782 13.1106C29.6782 11.7362 30.0869 10.7501 30.9042 10.1523C31.7215 9.55454 32.9559 9.20344 34.6076 9.09905L41.5934 8.62823C42.065 8.5984 42.4077 8.53115 42.6214 8.42648C42.8351 8.32181 42.942 8.14229 42.942 7.88793C42.942 7.60429 42.7581 7.39888 42.3903 7.2717C42.0225 7.14452 41.4551 7.08093 40.6881 7.08093C39.9954 7.08093 39.4279 7.16696 38.9854 7.33902C38.543 7.51108 38.2336 7.79119 38.0572 8.17937H30.4972C30.5559 7.02894 30.9759 6.14364 31.7572 5.52348C32.5386 4.90331 33.6363 4.47786 35.0503 4.24711C36.4653 4.01553 38.3003 3.89967 40.5552 3.89954C42.8693 3.89954 44.7154 4.00041 46.0935 4.20216C47.4716 4.40391 48.5217 4.79243 49.244 5.36771C49.9659 5.94313 50.3269 6.78355 50.3269 7.88896V14.7023C50.327 15.1654 50.3382 15.5277 50.3604 15.7891ZM43.1863 11.0714C42.965 11.206 42.5891 11.3032 42.0587 11.3628L38.6321 11.8111C38.0719 11.8858 37.67 12.0128 37.4266 12.1922C37.1832 12.3716 37.0618 12.6328 37.0623 12.9758C37.0623 13.3348 37.2171 13.5888 37.5265 13.7376C37.836 13.8865 38.315 13.9611 38.9636 13.9615C40.1721 13.9615 41.178 13.7488 41.9814 13.3232C42.7848 12.8976 43.1867 12.2513 43.187 11.3844L43.1863 11.0714Z" fill="white"/>
<path d="M75.6181 16.6296H68.0351L65.8467 10.5784H65.7139L63.548 16.6296H55.6774L50.1284 4.48322H57.9321L60.0979 10.3553H60.2307L62.3538 4.48322H69.0079L71.2407 10.2871H71.3736L73.4296 4.48322H81.145L75.6181 16.6296Z" fill="white"/>
<path d="M104.248 5.7712C103.599 5.33042 102.693 5.11003 101.529 5.11003C100.129 5.11003 99.0489 5.41265 98.2898 6.0179C97.5306 6.62315 97.1512 7.49312 97.1513 8.62781C97.1513 9.7636 97.5308 10.634 98.2898 11.239C99.0487 11.8439 100.128 12.1467 101.529 12.1472C102.722 12.1472 103.64 11.912 104.281 11.4415C104.922 10.9711 105.287 10.3546 105.374 9.59223H113.952C113.893 12.1922 112.861 14.1197 110.857 15.3746C108.852 16.6296 105.772 17.2571 101.617 17.2573C97.4016 17.2573 94.2806 16.555 92.2543 15.1505C90.228 13.746 89.2148 11.572 89.2148 8.62843C89.2148 5.68504 90.228 3.51115 92.2543 2.10677C94.2806 0.702396 97.4016 0.00013809 101.617 0C105.758 0 108.831 0.60884 110.836 1.82652C112.84 3.0442 113.865 4.87824 113.909 7.32865H105.354C105.265 6.731 104.896 6.21185 104.248 5.7712Z" fill="white"/>
<path d="M114.97 0.402649H122.133V16.6296H114.97V0.402649Z" fill="white"/>
<path d="M141.93 5.56925C143.574 6.68268 144.395 8.34494 144.395 10.556C144.395 12.7671 143.57 14.4256 141.919 15.5314C140.268 16.6361 137.549 17.189 133.762 17.19C129.959 17.19 127.232 16.6371 125.582 15.5314C123.931 14.4257 123.106 12.7673 123.105 10.556C123.105 8.34494 123.931 6.68268 125.582 5.56925C127.232 4.45583 129.959 3.89926 133.762 3.89954C137.564 3.89954 140.287 4.45611 141.93 5.56925ZM137.011 10.556C137.011 9.79419 136.753 9.21518 136.237 8.819C135.721 8.42282 134.896 8.22487 133.762 8.22514C132.627 8.22514 131.801 8.4231 131.285 8.819C130.769 9.2149 130.511 9.79392 130.512 10.556C130.512 11.303 130.769 11.8745 131.285 12.2705C131.801 12.6665 132.627 12.8645 133.762 12.8644C135.928 12.8644 137.011 12.0949 137.011 10.556Z" fill="white"/>
<path d="M157.661 11.632V16.6297C157.263 16.6745 156.673 16.7193 155.893 16.7644C155.112 16.8094 154.353 16.8317 153.616 16.8313C151.832 16.8313 150.454 16.6857 149.481 16.3944C148.508 16.1032 147.823 15.6326 147.425 14.9826C147.027 14.3329 146.828 13.4176 146.828 12.2368V8.02365H144.528V4.48328H146.828V1.25507H153.99V4.48328H157.683V8.0253H153.99V10.8028C153.99 11.1618 154.093 11.4008 154.3 11.5197C154.506 11.6386 154.897 11.6983 155.472 11.6989C156.356 11.6989 157.086 11.6766 157.661 11.632Z" fill="white"/>
<path d="M177.004 5.33392C178.11 6.126 178.662 7.32877 178.663 8.94221V16.6296H171.499V11.4525C171.499 10.6608 171.289 10.0931 170.869 9.74921C170.449 9.40537 169.819 9.23351 168.979 9.23365C168.095 9.23365 167.365 9.4354 166.79 9.8389C166.215 10.2424 165.928 10.9446 165.928 11.9455V16.6296H158.787V0.402649H165.928V6.02844H166.061C167.564 4.7732 169.634 4.14565 172.272 4.14579C174.321 4.14607 175.899 4.54211 177.004 5.33392Z" fill="white"/>
<path d="M179.812 0.313599H187.063V3.20458H179.812V0.313599ZM179.856 4.48323H187.019V16.6296H179.856V4.48323Z" fill="white"/>
<path d="M195.243 6.05126H195.375C196.156 5.43883 197.059 4.96822 198.083 4.63943C199.108 4.31064 200.32 4.14624 201.72 4.14624C203.769 4.14624 205.346 4.54214 206.451 5.33395C207.557 6.12575 208.109 7.33597 208.11 8.9646V16.6286H200.947V11.4525C200.947 10.6757 200.733 10.1117 200.305 9.76041C199.878 9.40911 199.251 9.23353 198.425 9.23367C197.541 9.23367 196.812 9.43915 196.237 9.8501C195.662 10.2611 195.374 10.967 195.375 11.9678V16.6296H188.212V4.48325H195.243V6.05126Z" fill="white"/>
<path d="M230.107 4.48325V15.6435C230.107 17.0779 229.878 18.1575 229.421 18.8822C228.964 19.6069 228.006 20.141 226.547 20.4846C225.088 20.828 222.826 20.9997 219.76 20.9997C216.842 20.9997 214.638 20.828 213.15 20.4846C211.661 20.1412 210.663 19.6592 210.154 19.0388C209.646 18.4186 209.347 17.5783 209.259 16.5178H217.064C217.226 16.8906 217.506 17.1821 217.904 17.3921C218.302 17.6021 218.921 17.7067 219.761 17.7057C220.616 17.7057 221.275 17.6384 221.739 17.5039C222.204 17.3694 222.524 17.1565 222.701 16.8651C222.878 16.5739 222.967 16.1665 222.967 15.643V14.1194H222.812C221.456 15.1356 219.614 15.6436 217.285 15.6435C214.544 15.6435 212.491 15.1728 211.128 14.2316C209.765 13.2904 209.083 11.8486 209.082 9.90624C209.082 7.9339 209.764 6.48079 211.127 5.54688C212.49 4.61298 214.543 4.1461 217.284 4.14624C218.507 4.14624 219.58 4.28074 220.501 4.54974C221.422 4.81874 222.236 5.2221 222.944 5.75982H223.098V4.48325H230.107ZM222.358 11.2963C222.91 10.9678 223.187 10.5047 223.187 9.90707C223.187 9.30942 222.91 8.84626 222.358 8.51761C221.805 8.18868 220.939 8.02428 219.76 8.02442C218.596 8.02442 217.759 8.18122 217.251 8.49482C216.743 8.80843 216.488 9.27917 216.488 9.90707C216.488 10.5345 216.742 11.0051 217.251 11.3187C217.759 11.6323 218.596 11.7892 219.76 11.7893C220.939 11.7887 221.805 11.6241 222.358 11.2955V11.2963Z" fill="white"/>
<path d="M247.262 1.35551C248.456 2.06543 249.403 3.02171 250.102 4.22434C250.801 5.42697 251.152 6.74573 251.152 8.18063C251.152 9.60006 250.802 10.9149 250.102 12.1251C249.402 13.3353 248.455 14.2951 247.262 15.0043C246.068 15.7141 244.771 16.0689 243.371 16.0688C241.971 16.0686 240.67 15.7138 239.468 15.0043C238.267 14.2947 237.316 13.3349 236.616 12.1251C235.917 10.9153 235.567 9.60048 235.566 8.18063C235.566 6.74629 235.916 5.42752 236.616 4.22434C237.316 3.02116 238.263 2.06488 239.457 1.35551C240.65 0.645863 241.955 0.290971 243.37 0.290833C244.771 0.291109 246.068 0.646001 247.262 1.35551ZM246.433 13.5477C247.355 13.0017 248.121 12.2215 248.655 11.2841C249.199 10.3352 249.472 9.30048 249.472 8.18001C249.472 7.07446 249.199 6.0472 248.655 5.09825C248.12 4.16109 247.355 3.381 246.433 2.83467C245.497 2.2743 244.476 1.99411 243.371 1.99411C242.266 1.99411 241.245 2.27443 240.31 2.83508C239.386 3.38287 238.617 4.16239 238.077 5.09866C237.524 6.04748 237.248 7.07473 237.248 8.18042C237.248 9.30103 237.524 10.3357 238.077 11.2846C238.617 12.2211 239.386 13.0007 240.31 13.5481C241.246 14.1084 242.267 14.3885 243.372 14.3885C244.477 14.3885 245.497 14.1084 246.433 13.5481V13.5477ZM246.521 8.38176C246.293 8.77021 245.957 9.06151 245.515 9.25567L247.129 11.9451H244.454L243.194 9.56948H242.288V11.9455H239.967V4.37016H243.947C244.86 4.37016 245.575 4.59801 246.091 5.05371C246.606 5.50941 246.864 6.14822 246.865 6.97013C246.864 7.52277 246.75 7.99345 246.521 8.38218V8.38176ZM242.288 7.79888H243.504C243.828 7.79888 244.075 7.72417 244.244 7.57476C244.413 7.42535 244.498 7.22366 244.498 6.96972C244.498 6.71604 244.414 6.51436 244.244 6.36467C244.074 6.21498 243.828 6.14021 243.504 6.14035H242.288V7.79888Z" fill="white"/>
</g>
<defs>
<clipPath id="clip0_5518:64200">
<rect width="245.108" height="21" fill="white" transform="translate(6.04541)"/>
</clipPath>
</defs>
</svg>
