<svg width="25" height="18" viewBox="0 0 25 18" fill="none" xmlns="http://www.w3.org/2000/svg">
<path d="M23.0956 0H2.09564C1.69782 0 1.31629 0.158035 1.03498 0.43934C0.753677 0.720644 0.595642 1.10218 0.595642 1.5V16.5C0.595642 16.8978 0.753677 17.2794 1.03498 17.5607C1.31629 17.842 1.69782 18 2.09564 18H23.0956C23.4935 18 23.875 17.842 24.1563 17.5607C24.4376 17.2794 24.5956 16.8978 24.5956 16.5V1.5C24.5956 1.10218 24.4376 0.720644 24.1563 0.43934C23.875 0.158035 23.4935 0 23.0956 0ZM21.9406 16.5H3.34064L8.59064 11.07L7.51064 10.0275L2.09564 15.63V2.64L11.4181 11.9175C11.6992 12.1969 12.0794 12.3537 12.4756 12.3537C12.8719 12.3537 13.2521 12.1969 13.5331 11.9175L23.0956 2.4075V15.5325L17.5756 10.0125L16.5181 11.07L21.9406 16.5ZM3.07814 1.5H21.8806L12.4756 10.8525L3.07814 1.5Z" fill="white"/>
</svg>
