<svg width="20" height="24" viewBox="0 0 20 24" fill="none" xmlns="http://www.w3.org/2000/svg">
<path d="M10.3456 12C9.02564 12 7.94564 10.92 7.94564 9.6C7.94564 8.28 9.02564 7.2 10.3456 7.2C11.6656 7.2 12.7456 8.28 12.7456 9.6C12.7456 10.92 11.6656 12 10.3456 12ZM17.5456 9.84C17.5456 5.484 14.3656 2.4 10.3456 2.4C6.32564 2.4 3.14564 5.484 3.14564 9.84C3.14564 12.648 5.48564 16.368 10.3456 20.808C15.2056 16.368 17.5456 12.648 17.5456 9.84ZM10.3456 0C15.3856 0 19.9456 3.864 19.9456 9.84C19.9456 13.824 16.7416 18.54 10.3456 24C3.94964 18.54 0.745636 13.824 0.745636 9.84C0.745636 3.864 5.30564 0 10.3456 0Z" fill="white"/>
</svg>
