<svg width="24" height="24" viewBox="0 0 24 24" fill="none" xmlns="http://www.w3.org/2000/svg">
<path fill-rule="evenodd" clip-rule="evenodd" d="M17.5106 14.382C17.2126 14.233 15.7516 13.515 15.4796 13.415C15.2076 13.316 15.0096 13.267 14.8106 13.565C14.6126 13.861 14.0436 14.531 13.8706 14.729C13.6966 14.928 13.5236 14.952 13.2266 14.804C12.9296 14.654 11.9716 14.341 10.8366 13.329C9.95364 12.541 9.35664 11.568 9.18364 11.27C9.01064 10.973 9.16464 10.812 9.31364 10.664C9.44764 10.531 9.61064 10.317 9.75964 10.144C9.90864 9.97004 9.95764 9.84604 10.0566 9.64704C10.1566 9.44904 10.1066 9.27604 10.0316 9.12704C9.95764 8.97804 9.36364 7.51504 9.11564 6.92004C8.87464 6.34104 8.62964 6.42004 8.44764 6.41004C8.27364 6.40204 8.07564 6.40004 7.87764 6.40004C7.67964 6.40004 7.35764 6.47404 7.08564 6.77204C6.81264 7.06904 6.04564 7.78804 6.04564 9.25104C6.04564 10.713 7.10964 12.126 7.25864 12.325C7.40764 12.523 9.35364 15.525 12.3346 16.812C13.0446 17.118 13.5976 17.301 14.0286 17.437C14.7406 17.664 15.3886 17.632 15.9006 17.555C16.4706 17.47 17.6586 16.836 17.9066 16.142C18.1536 15.448 18.1536 14.853 18.0796 14.729C18.0056 14.605 17.8076 14.531 17.5096 14.382H17.5106ZM12.0886 21.785H12.0846C10.3141 21.7854 8.57601 21.3094 7.05264 20.407L6.69264 20.193L2.95064 21.175L3.94964 17.527L3.71464 17.153C2.72478 15.5774 2.20094 13.7538 2.20364 11.893C2.20564 6.44304 6.63964 2.00904 12.0926 2.00904C14.7326 2.00904 17.2146 3.03904 19.0806 4.90704C20.001 5.82362 20.7305 6.91361 21.2269 8.11394C21.7233 9.31427 21.9768 10.6011 21.9726 11.9C21.9706 17.35 17.5366 21.785 12.0886 21.785ZM20.5006 3.48804C19.3988 2.37896 18.0879 1.49958 16.6437 0.900841C15.1996 0.302105 13.651 -0.00407625 12.0876 4.09775e-05C5.53364 4.09775e-05 0.197642 5.33504 0.195642 11.892C0.194642 13.988 0.741642 16.034 1.78264 17.837L0.0956421 24L6.39964 22.346C8.14352 23.2962 10.0977 23.794 12.0836 23.794H12.0886C18.6426 23.794 23.9786 18.459 23.9806 11.901C23.9855 10.3383 23.6804 8.79014 23.0831 7.34607C22.4857 5.90201 21.608 4.59071 20.5006 3.48804Z" fill="white"/>
</svg>
