<svg width="24" height="24" viewBox="0 0 24 24" fill="none" xmlns="http://www.w3.org/2000/svg"><path d="M6.625 3L3.75 6.6v12.6c0 .477.202.935.561 1.273.36.337.847.527 1.356.527h13.416c.509 0 .996-.19 1.356-.527.36-.338.561-.796.561-1.273V6.6L18.125 3h-11.5zM3.75 6.6H21" stroke="#fff" stroke-width="2" stroke-linecap="round" stroke-linejoin="round"/><path d="M16.209 10.2c0 .955-.404 1.872-1.123 2.547a3.962 3.962 0 01-2.71 1.056 3.962 3.962 0 01-2.711-1.056A3.496 3.496 0 018.542 10.2" stroke="#fff" stroke-width="2" stroke-linecap="round" stroke-linejoin="round"/></svg>