<svg width="49" height="48" viewBox="0 0 49 48" fill="none" xmlns="http://www.w3.org/2000/svg"><path d="M6.765 9c-.334 0-.654.132-.89.366a1.246 1.246 0 00-.368.884v27.5c0 .331.132.65.368.884a1.263 1.263 0 001.78 0c.236-.234.369-.553.369-.884v-27.5c0-.332-.133-.65-.369-.884A1.263 1.263 0 006.765 9zm5.033 0c-.333 0-.653.132-.89.366a1.246 1.246 0 00-.368.884v22.5c0 .331.133.65.369.884a1.263 1.263 0 001.78 0 1.25 1.25 0 00.368-.884v-22.5c0-.332-.133-.65-.369-.884a1.262 1.262 0 00-.89-.366zm5.034 0c-.334 0-.654.132-.89.366a1.246 1.246 0 00-.369.884v22.5c0 .331.133.65.369.884a1.263 1.263 0 001.78 0 1.25 1.25 0 00.368-.884v-22.5c0-.332-.133-.65-.369-.884a1.263 1.263 0 00-.89-.366zm5.034 0c-.334 0-.654.132-.89.366a1.246 1.246 0 00-.369.884v22.5c0 .331.133.65.369.884a1.263 1.263 0 001.78 0 1.25 1.25 0 00.368-.884v-22.5c0-.332-.133-.65-.368-.884a1.263 1.263 0 00-.89-.366zm5.032 0c-.334 0-.654.132-.89.366a1.246 1.246 0 00-.368.884v22.5c0 .331.132.65.368.884a1.263 1.263 0 001.78 0c.236-.234.368-.553.368-.884v-22.5c0-.332-.132-.65-.368-.884a1.263 1.263 0 00-.89-.366zm5.034 0c-.334 0-.654.132-.89.366a1.246 1.246 0 00-.368.884v22.5c0 .331.132.65.368.884a1.263 1.263 0 001.78 0c.236-.234.368-.553.368-.884v-22.5c0-.332-.132-.65-.368-.884a1.262 1.262 0 00-.89-.366zm5.033 0c-.333 0-.653.132-.89.366a1.246 1.246 0 00-.368.884v22.5c0 .331.133.65.369.884a1.263 1.263 0 001.78 0 1.25 1.25 0 00.368-.884v-22.5c0-.332-.133-.65-.369-.884a1.262 1.262 0 00-.89-.366zm5.034 0c-.334 0-.654.132-.89.366a1.246 1.246 0 00-.369.884v27.5c0 .331.133.65.369.884a1.263 1.263 0 001.78 0 1.25 1.25 0 00.368-.884v-27.5c0-.332-.133-.65-.369-.884a1.262 1.262 0 00-.89-.366z" fill="#009444"/></svg>