<svg width="22" height="24" viewBox="0 0 68 74" fill="none" xmlns="http://www.w3.org/2000/svg"><path d="M66.928 64.366L61.331 21.66c-.165-.771-.824-1.388-1.647-1.388H47.666v-4.317C47.666 7.013 42.395 1 34.493 1 26.59 1 21.322 7.013 21.322 15.955v4.317H8.316c-.823 0-1.482.617-1.646 1.388L1.072 64.365c-.33 2.159.494 4.471 1.976 6.013C4.53 72.075 6.835 73 9.139 73h49.557c2.305 0 4.61-.925 6.092-2.621 1.647-1.542 2.47-3.854 2.14-6.013zM24.616 16.11c0-5.55 2.634-11.871 9.878-11.871s9.879 6.32 9.879 11.871v4.317H24.616V16.11zm37.867 52.266c-.988.925-2.305 1.541-3.622 1.541H9.139c-1.481 0-2.798-.616-3.622-1.541a4.832 4.832 0 01-1.152-3.7L9.798 23.51h48.404l5.434 41.319c.164 1.233-.33 2.62-1.153 3.546z" fill="#3C3C3B" stroke="#3C3C3B"/></svg>