<svg width="27" height="27" viewBox="0 0 27 27" fill="none" xmlns="http://www.w3.org/2000/svg"><path d="M10.09 25.24c.628 0 1.137-.515 1.137-1.15 0-.635-.509-1.15-1.136-1.15-.628 0-1.137.515-1.137 1.15 0 .635.509 1.15 1.136 1.15zm12.5 0c.628 0 1.137-.515 1.137-1.15 0-.635-.509-1.15-1.137-1.15-.627 0-1.136.515-1.136 1.15 0 .635.509 1.15 1.136 1.15zM1 1.096h4.545L8.591 16.49c.104.53.388 1.005.804 1.343.415.339.935.519 1.469.508h11.045c.533.01 1.053-.17 1.469-.508.415-.338.7-.814.804-1.343L26 6.844H6.682" stroke="#fff" stroke-width="1.6" stroke-linecap="round" stroke-linejoin="round"/></svg>