<svg width="49" height="48" viewBox="0 0 49 48" fill="none" xmlns="http://www.w3.org/2000/svg"><path clip-rule="evenodd" d="M10.857 10h22c2.21 0 4 1.79 4 4v14c0 2.21-1.79 4-4 4h-22c-2.21 0-4-1.79-4-4V14c0-2.21 1.79-4 4-4z" stroke="#009444" stroke-width="3" stroke-linecap="round" stroke-linejoin="round"/><path d="M42.857 24h-6m0-8h2c2.21 0 4 1.79 4 4v14c0 2.21-1.79 4-4 4h-22c-2.21 0-4-1.79-4-4v-2" stroke="#009444" stroke-width="3" stroke-linecap="round" stroke-linejoin="round"/><path clip-rule="evenodd" d="M16.857 22h-2a2 2 0 01-2-2v-2a2 2 0 012-2h2a2 2 0 012 2v2a2 2 0 01-2 2z" stroke="#009444" stroke-width="3" stroke-linecap="round" stroke-linejoin="round"/></svg>