<svg width="49" height="48" viewBox="0 0 49 48" fill="none" xmlns="http://www.w3.org/2000/svg"><path d="M37.695 36.592a3.166 3.166 0 010 4.48 3.166 3.166 0 01-4.48 0 3.166 3.166 0 010-4.48 3.166 3.166 0 014.48 0m-22.001 0a3.166 3.166 0 010 4.48 3.168 3.168 0 110-4.48M20.286 8h8a2 2 0 012 2v20h-26" stroke="#009444" stroke-width="3" stroke-linecap="round" stroke-linejoin="round"/><path d="M10.286 38.832h-4a2 2 0 01-2-2V26m26-12h8.646c.818 0 1.554.498 1.856 1.258L44 23.286c.188.472.286.976.286 1.484v11.896a2 2 0 01-2 2h-3.662m-6.338.174h-15.66" stroke="#009444" stroke-width="3" stroke-linecap="round" stroke-linejoin="round"/><path d="M44.286 28h-8v-8h6.4M4.286 8h10m-10 6h6m-4 6h-2" stroke="#009444" stroke-width="3" stroke-linecap="round" stroke-linejoin="round"/></svg>