<svg width="48" height="48" viewBox="0 0 48 48" fill="none" xmlns="http://www.w3.org/2000/svg"><path d="M45.985 19.425L37.987 5.658a1.311 1.311 0 00-1.796-.48l-4.794 2.796L27.08 6.37a4.778 4.778 0 00-4.086.354l-6.557 3.824-5.812-3.39a1.308 1.308 0 00-1.82.523L1.322 21.773a1.339 1.339 0 00.503 1.782l2.969 1.732-1.49 2.605c-1.09 1.908-.44 4.356 1.448 5.458a3.905 3.905 0 002.789.448 3.969 3.969 0 001.778 2.215 3.91 3.91 0 002.789.449 3.969 3.969 0 001.778 2.215 3.91 3.91 0 002.789.448 3.969 3.969 0 001.778 2.215c1.888 1.102 4.311.446 5.402-1.462l.17-.298 4.948 2.885c1.889 1.102 4.312.446 5.403-1.462.257-.45.416-.93.487-1.416a3.944 3.944 0 004.433-1.866 3.997 3.997 0 00.52-1.735 3.948 3.948 0 003.639-1.99 4.034 4.034 0 00-.114-4.18c.49-.329.915-.773 1.228-1.322 1.06-1.856.476-4.221-1.294-5.363l2.409-2.004a1.34 1.34 0 00.3-1.702zM24.312 9.031a2.171 2.171 0 011.857-.16l4.898 1.818c.367.137.775.102 1.114-.096l4.194-2.447 6.766 11.648-2.299 1.912-15.834-9.236a1.307 1.307 0 00-1.319 0l-7.288 4.25c-.606.372-1.459.14-1.8-.487-.368-.612-.139-1.474.482-1.819l9.23-5.383zM6.072 31.043a1.34 1.34 0 01-.483-1.82l2.197-3.844a1.313 1.313 0 011.801-.487 1.34 1.34 0 01.483 1.819l-2.198 3.844a1.313 1.313 0 01-1.8.488zm4.566 2.663a1.34 1.34 0 01-.482-1.819l3.076-5.382a1.313 1.313 0 011.8-.488 1.34 1.34 0 01.483 1.82l-3.076 5.382a1.313 1.313 0 01-1.8.487zm4.567 2.664a1.34 1.34 0 01-.482-1.82l2.197-3.844a1.313 1.313 0 011.8-.487 1.34 1.34 0 01.483 1.82l-2.197 3.844a1.313 1.313 0 01-1.8.487zm4.568 2.664a1.34 1.34 0 01-.483-1.82l1.319-2.306a1.313 1.313 0 011.8-.488 1.34 1.34 0 01.483 1.82l-1.318 2.306a1.313 1.313 0 01-1.801.488zm21.4-6.37a1.313 1.313 0 01-1.8.488l-6.85-3.996a1.312 1.312 0 00-1.802.488 1.34 1.34 0 00.483 1.819l5.328 3.107a1.34 1.34 0 01.482 1.82 1.313 1.313 0 01-1.8.487l-5.328-3.108a1.312 1.312 0 00-1.801.488 1.34 1.34 0 00.482 1.82l3.045 1.775a1.34 1.34 0 01.482 1.82 1.313 1.313 0 01-1.8.487l-4.962-2.894c.86-1.856.184-4.108-1.605-5.151a3.9 3.9 0 00-1.718-.526 4.008 4.008 0 00-1.97-3.676 3.9 3.9 0 00-1.718-.525 4.008 4.008 0 00-1.97-3.676 3.925 3.925 0 00-4.137.114 3.93 3.93 0 00-5.935-.748l-2.03-1.183 6.235-11.742 3.316 1.934-.037.021a3.967 3.967 0 00-1.843 2.426 4.006 4.006 0 00.395 3.032 3.937 3.937 0 002.402 1.862 3.896 3.896 0 003.001-.4l6.629-3.866 17.456 10.183a1.34 1.34 0 01.483 1.819 1.313 1.313 0 01-1.8.487l-5.329-3.107a1.312 1.312 0 00-1.8.487 1.34 1.34 0 00.482 1.82l6.85 3.995a1.34 1.34 0 01.484 1.82z" fill="#009444"/></svg>