<svg width="16" height="16" viewBox="0 0 16 16" fill="none" xmlns="http://www.w3.org/2000/svg">
  <path
    d="M13.4976 3.51668C13.1799 3.19437 12.8028 2.93868 12.3877 2.76423C11.9726 2.58979 11.5276 2.5 11.0783 2.5C10.629 2.5 10.1841 2.58979 9.76897 2.76423C9.35386 2.93868 8.97671 3.19437 8.65907 3.51668L7.99983 4.18529L7.3406 3.51668C6.69898 2.86593 5.82874 2.50034 4.92135 2.50034C4.01395 2.50034 3.14372 2.86593 2.50209 3.51668C1.86046 4.16744 1.5 5.05005 1.5 5.97036C1.5 6.89067 1.86046 7.77328 2.50209 8.42404L3.16132 9.09265L7.99983 14L12.8383 9.09265L13.4976 8.42404C13.8154 8.10187 14.0675 7.71935 14.2395 7.29834C14.4115 6.87733 14.5 6.42608 14.5 5.97036C14.5 5.51464 14.4115 5.06338 14.2395 4.64238C14.0675 4.22137 13.8154 3.83885 13.4976 3.51668V3.51668Z"
    stroke="#414042" stroke-width="1.2" stroke-linecap="round" stroke-linejoin="round" />
</svg>
