<svg width="36" height="36" viewBox="0 0 36 36" fill="none" xmlns="http://www.w3.org/2000/svg"><path d="M10 11.146c0-.633.526-1.146 1.175-1.146h13.65c.649 0 1.175.513 1.175 1.146v13.708c0 .633-.526 1.146-1.175 1.146h-13.65C10.526 26 10 25.487 10 24.854V11.146zm4.943 12.248v-7.225h-2.401v7.225h2.401zm-1.2-8.212c.837 0 1.358-.554 1.358-1.248-.015-.709-.52-1.248-1.342-1.248-.822 0-1.359.54-1.359 1.248 0 .694.521 1.248 1.327 1.248h.016zm4.908 8.212v-4.035c0-.216.016-.432.08-.586.173-.431.568-.878 1.232-.878.869 0 1.216.662 1.216 1.634v3.865h2.401V19.25c0-2.22-1.184-3.252-2.764-3.252-1.274 0-1.845.7-2.165 1.193v.025h-.016l.016-.025v-1.022h-2.4c.03.678 0 7.225 0 7.225h2.4z" fill="#F2F2F2"/></svg>