<svg width="49" height="48" viewBox="0 0 49 48" fill="none" xmlns="http://www.w3.org/2000/svg"><path clip-rule="evenodd" d="M34.571 42h-20c-2.21 0-4-1.79-4-4V22c0-2.21 1.79-4 4-4h20c2.21 0 4 1.79 4 4v16c0 2.21-1.79 4-4 4z" stroke="#009444" stroke-width="3" stroke-linecap="round" stroke-linejoin="round"/><path d="M24.571 34.18V29m1.061-2.56a1.5 1.5 0 11-2.122 2.12 1.5 1.5 0 012.122-2.12M16.571 18v-4 0a8 8 0 018-8v0a8 8 0 018 8v4" stroke="#009444" stroke-width="3" stroke-linecap="round" stroke-linejoin="round"/></svg>