<svg width="25" height="24" viewBox="0 0 25 24" fill="none" xmlns="http://www.w3.org/2000/svg">
  <path
    d="M21.4994 16.4774V19.1873C21.5005 19.4389 21.4488 19.6879 21.3479 19.9184C21.2469 20.1489 21.0988 20.3558 20.9131 20.5259C20.7273 20.696 20.508 20.8254 20.2693 20.906C20.0305 20.9866 19.7775 21.0166 19.5265 20.9939C16.7415 20.6919 14.0664 19.7421 11.716 18.2208C9.52929 16.8339 7.67534 14.9835 6.2858 12.801C4.75627 10.4444 3.80442 7.7614 3.50735 4.96929C3.48473 4.7195 3.51447 4.46774 3.59468 4.23005C3.67489 3.99236 3.80381 3.77394 3.97323 3.5887C4.14265 3.40346 4.34885 3.25546 4.57872 3.15412C4.80858 3.05278 5.05707 3.00032 5.30837 3.00009H8.02347C8.46269 2.99577 8.8885 3.15101 9.22152 3.43687C9.55455 3.72272 9.77207 4.11969 9.83354 4.55377C9.94814 5.42101 10.1607 6.27252 10.4671 7.09206C10.5888 7.41538 10.6152 7.76675 10.543 8.10456C10.4708 8.44236 10.3031 8.75244 10.0598 8.99804L8.91041 10.1452C10.1988 12.4067 12.0748 14.2792 14.3406 15.5651L15.49 14.4179C15.7361 14.175 16.0467 14.0076 16.3852 13.9356C16.7237 13.8635 17.0757 13.8898 17.3996 14.0114C18.2207 14.3172 19.0739 14.5293 19.9428 14.6437C20.3824 14.7056 20.7839 14.9266 21.0709 15.2647C21.358 15.6028 21.5105 16.0344 21.4994 16.4774Z"
    stroke="white" stroke-width="2" stroke-linecap="round" stroke-linejoin="round" />
</svg>
