<svg width="16" height="14" viewBox="0 0 16 14" fill="none" xmlns="http://www.w3.org/2000/svg"><path d="M15.176 10.03c-.396-.19-2.326-1.084-2.687-1.211-.36-.122-.622-.186-.885.19-.257.367-1.014 1.206-1.245 1.45-.231.245-.459.264-.849.098-.396-.19-1.662-.581-3.165-1.86-1.173-.991-1.955-2.212-2.187-2.588-.231-.371-.026-.581.17-.767.18-.17.396-.43.597-.654.19-.225.251-.376.39-.62.13-.263.063-.469-.035-.654-.098-.186-.885-2.026-1.214-2.76C3.752-.073 3.423.02 3.18.02 2.954 0 2.69 0 2.43 0c-.262 0-.69.093-1.05.45C1.018.824 0 1.722 0 3.54c0 1.822 1.41 3.585 1.606 3.848.2.244 2.773 3.994 6.72 5.606.942.376 1.673.6 2.244.786.942.284 1.802.244 2.48.151.751-.117 2.326-.903 2.656-1.782.335-.884.335-1.616.237-1.782-.097-.171-.354-.264-.75-.43l-.017.093z" fill="#009444"/></svg>