<svg width="16" height="16" viewBox="0 0 16 16" fill="none" xmlns="http://www.w3.org/2000/svg"><path fill-rule="evenodd" clip-rule="evenodd" d="M6.92 1.965A2.821 2.821 0 118 7.393v-.25.25a2.816 2.816 0 01-2.822-2.822A2.821 2.821 0 016.92 1.965zm1.533.33a2.322 2.322 0 00-2.775 2.277A2.316 2.316 0 008 6.893a2.322 2.322 0 00.453-4.598zM7.75 8.612a11.505 11.505 0 00-3.593.765c-.64.256-1.234.582-1.67.986-.44.405-.737.904-.737 1.495v2.392h12.5v-2.393c0-.591-.298-1.09-.736-1.495-.438-.403-1.03-.73-1.67-.986-1.28-.512-2.812-.77-3.844-.77h-.25v.006zm.342.496H8c-.97 0-2.438.245-3.658.733-.61.244-1.141.543-1.516.89-.374.344-.576.72-.576 1.127v1.892h11.5v-1.893c0-.407-.202-.783-.576-1.128-.375-.346-.907-.645-1.516-.889-1.182-.473-2.598-.718-3.566-.732z" fill="#3C3C3B"/></svg>