<svg width="22" height="20" viewBox="0 0 22 20" fill="none" xmlns="http://www.w3.org/2000/svg"><path fill-rule="evenodd" clip-rule="evenodd" d="M12.009 0a.768.768 0 00-.769.77.756.756 0 00.01.095.756.756 0 00-.01.097V2.5a.77.77 0 001.537 0v-.925a8.45 8.45 0 015.475 2.72 8.464 8.464 0 010 11.41 8.45 8.45 0 01-5.475 2.72V17.5a.77.77 0 00-1.537 0v1.538a.483.483 0 010 .193.77.77 0 00.769.769 9.987 9.987 0 007.065-2.929 10.004 10.004 0 000-14.142A9.987 9.987 0 0012.009 0zm-3.63 10a.77.77 0 00-.768-.77H.77a.768.768 0 000 1.54h6.84a.768.768 0 00.77-.77zm-5.75-5.577h5.057a.768.768 0 010 1.539H2.628a.768.768 0 010-1.539zm5.057 9.615H2.628a.768.768 0 000 1.539h5.057a.768.768 0 000-1.539zm9.787-7.01l-4.864 4.12a1.402 1.402 0 01-1.973-.165 1.401 1.401 0 01.39-2.13l5.574-3.09a.772.772 0 01.873 1.265zm-6.424 2.984a.77.77 0 101.54-.024.77.77 0 00-1.54.024z" fill="#214D8E"/></svg>