<svg width="48" height="24" viewBox="0 0 48 24" fill="none" xmlns="http://www.w3.org/2000/svg"><g clip-path="url(#clip0)" fill="#fff"><path d="M35.063 5.19L29.86 17.117l-.69-.001L23.594 5.19h1.812s.288-.04.406.21l4.378 9.22 4.171-9.43h.702zM45.66 16.436l-7.957-.007L46.25 5.19H35.886c-.282 0-.282.255-.282.255v.434h7.773l-8.47 10.927v.312h11.167v-.322c0-.345-.398-.359-.415-.36zM22.82 5.19H12.701c-.22 0-.24.188-.24.238v.449h4.32v11.24h2.006V5.878h4.266v-.497c-.013-.074-.062-.191-.235-.191zM3.082 10.386a.316.316 0 00-.04.129.126.126 0 01-.04.09l-.06.139c.066-.04.182-.107.348-.2a3.49 3.49 0 00.329-.198v-.02c.119-.08.235-.139.348-.179a3.54 3.54 0 01.329-.099c.24-.08.478-.133.717-.159a1.08 1.08 0 01.339.02c.145.026.28.08.398.159a.613.613 0 01.289.169l.27.269a.76.76 0 01.05.199.694.694 0 00.05.198c0 .107-.008.2-.02.28-.014.08-.034.172-.06.278-.053.119-.12.229-.2.328-.08.099-.173.202-.28.308l-.318.318-.18.178a.515.515 0 01-.179.12 2.312 2.312 0 01-.298.158c-.093.04-.187.087-.28.14a5.94 5.94 0 01-.438.178 2.513 2.513 0 01-.498.12c-.2.065-.372.072-.518.02-.24-.04-.412-.094-.518-.16-.053 0-.086-.02-.1-.06-.013 0-.02-.026-.02-.08v-.08h.06a.906.906 0 00.33.02c.112-.012.235-.032.368-.06l.1-.02a.52.52 0 00.189-.07c.02-.02.082-.05.189-.09.133-.04.27-.092.409-.158.139-.067.269-.146.388-.24l.18-.118c.119-.066.229-.155.328-.269.1-.113.202-.221.309-.328.052-.08.103-.155.149-.229.046-.072.09-.149.13-.228.026-.067.046-.13.06-.19a.471.471 0 000-.188l.02-.179a.309.309 0 00-.2-.239.256.256 0 00-.15-.03.37.37 0 01-.149-.01 1.32 1.32 0 00-.497.13c-.147.072-.313.148-.498.228-.2.08-.366.186-.498.318l-.22.159a8.354 8.354 0 00-.448.487 2.561 2.561 0 00-.389.626l-.16.438c0 .013-.006.026-.02.04-.066.146-.152.172-.259.08a1.227 1.227 0 01-.229-.13l-.21-.148c-.04-.04-.046-.08-.02-.12l.1-.357c.106-.239.193-.484.26-.736l.199-.755.02-.139h.02l.02-.08a.64.64 0 00.02-.149.22.22 0 01.04-.129.288.288 0 00.09-.169 1.08 1.08 0 01.03-.169c.026-.092.053-.195.08-.307.026-.113.053-.21.08-.288a.343.343 0 01.1-.18.703.703 0 01.09-.138c.032-.04.05-.113.05-.219.026-.08.05-.155.07-.229a.552.552 0 01.09-.189l.06-.159c.012-.106.033-.209.06-.308a.924.924 0 01.16-.307v-.04a.86.86 0 00.138-.338c.027-.133.087-.265.18-.398l.119-.358c.04-.119.08-.231.12-.338.026-.026.04-.046.04-.06-.027-.026-.014-.092.04-.198.052-.107.092-.192.118-.26 0-.012.02-.079.06-.198.04-.119.083-.245.13-.378a7.285 7.285 0 01.23-.576.585.585 0 00.04-.22v-.218a.749.749 0 00.02-.378c.026-.185.145-.251.358-.199a.46.46 0 00.07.03c.02.007.056.01.11.01.092.04.145.093.158.16.027.04.047.075.06.108a.252.252 0 00.06.09.35.35 0 01-.01.08 4.217 4.217 0 01-.1.458 1.288 1.288 0 01-.149.337l-.14.478-.08.179c-.013.066-.017.106-.01.119.007.014.01.024.01.03 0 .007-.01.026-.03.06a3.75 3.75 0 00-.108.209l-.02.119c-.187.424-.36.848-.518 1.272-.16.424-.313.855-.46 1.292-.146.305-.281.627-.408.965a8.49 8.49 0 00-.308 1.004l-.06.119h.019z"/><path d="M10.794 10.525c-.027.146-.05.291-.07.438a2.12 2.12 0 01-.11.437l-.05.259c-.02.106.003.119.07.04l.309-.169c.087-.046.182-.103.289-.169.159-.053.318-.132.477-.239.093-.026.182-.06.27-.099a7.747 7.747 0 01.549-.228c.092-.032.185-.062.28-.09a7.15 7.15 0 01.487-.158c.1-.027.236-.053.409-.08.04 0 .07-.003.089-.01a.227.227 0 01.07-.01c.093 0 .19-.007.288-.02.1-.013.15.026.15.119.026 0 .04.023.04.07 0 .046-.02.082-.06.109-.054 0-.093.013-.12.04l-.697.198a2.75 2.75 0 00-.338.11c-.12.046-.233.09-.339.128l-.16.08c-.332.146-.654.298-.966.458a9.993 9.993 0 00-.926.537c-.027 0-.06.016-.1.05a.31.31 0 00-.08.09c-.092.04-.139.106-.139.198l-.06.24a6.663 6.663 0 01-.04.248 1.123 1.123 0 01-.06.209.788.788 0 00-.04.249c0 .086-.02.162-.06.229-.014.013-.02.033-.02.06 0 .146-.02.275-.06.387a3.09 3.09 0 00-.1.348l-.099.298a16.65 16.65 0 01-.21.665c-.072.22-.156.44-.248.666-.067.145-.13.295-.19.448a3.91 3.91 0 01-.21.447c-.118.252-.245.5-.378.746-.133.245-.266.48-.398.706-.107.119-.21.248-.309.387-.1.14-.21.276-.329.408a4.322 4.322 0 01-.936.895 7.8 7.8 0 01-.309.209 1.45 1.45 0 01-.368.168c-.345.133-.665.16-.957.08l-.378-.139c-.013 0-.02-.003-.02-.01s-.007-.01-.02-.01a6.29 6.29 0 01-.2-.208 1.38 1.38 0 01-.18-.25 9.16 9.16 0 01-.08-.357 1.942 1.942 0 01-.04-.378.233.233 0 00.01-.119.888.888 0 01-.01-.139 4.62 4.62 0 00.03-.328c.008-.112.03-.222.07-.327 0-.027.008-.05.02-.07a.121.121 0 00.02-.07c.014-.107.04-.22.08-.338.041-.119.081-.232.12-.338.107-.225.223-.45.349-.675.126-.226.262-.432.408-.617a8.19 8.19 0 01.319-.408 6.91 6.91 0 00.319-.408c.08-.08.152-.165.219-.258.066-.093.146-.18.24-.26a.194.194 0 00.05-.07c.007-.02.023-.035.05-.05.119-.092.229-.188.328-.287.1-.099.202-.195.309-.288.119-.145.255-.275.408-.387.153-.113.302-.236.449-.368.212-.146.415-.296.608-.448.192-.153.401-.302.628-.448a6.25 6.25 0 00.288-.219c.1-.08.196-.152.289-.218.04-.027.08-.057.12-.09.04-.033.06-.083.06-.15.026-.106.04-.2.04-.287a.99.99 0 01.06-.308c0-.026.002-.06.01-.099.006-.04.01-.08.01-.119l.119-.954v-.04c-.014 0-.024.003-.03.01a.044.044 0 01-.03.01l-.24.279c-.16.172-.312.345-.459.516a4.428 4.428 0 01-.497.497.145.145 0 01-.04.03c-.014.007-.027.024-.04.05a3.051 3.051 0 01-.697.478 1.058 1.058 0 01-.659.109.337.337 0 00-.08-.01.429.429 0 01-.378-.22.739.739 0 01-.15-.377 1.732 1.732 0 01.03-.398c.027-.092.05-.181.07-.269.02-.086.043-.169.07-.248.053-.12.113-.266.18-.438.066-.172.126-.312.18-.418.066-.093.158-.126.278-.099a.18.18 0 00.1.05c.04.007.073.016.099.03a.253.253 0 01.12.149.285.285 0 010 .209l-.24.556a6.048 6.048 0 01-.16.438.537.537 0 00-.07.239 2 2 0 01-.03.239c0 .026.01.046.03.06.02.013.042.013.07 0l.279-.14c.16-.118.312-.24.459-.367a4.07 4.07 0 00.438-.448l.738-.815.199-.298c.066-.066.13-.136.19-.209.06-.072.122-.142.189-.209.08-.106.192-.119.338-.04a.3.3 0 01.11.02l.09.04c.145.093.225.205.239.338 0 .093.003.183.01.269a1.5 1.5 0 01-.01.288.451.451 0 00-.03.209c.007.07.003.152-.01.245zm-6.038 8.41c-.067.292-.08.524-.04.696.013.16.052.298.119.418.014.066.086.152.22.259.052.04.126.06.219.06.106-.027.193-.054.259-.08l.518-.259c.16-.106.302-.223.429-.348l.408-.408c.146-.159.289-.337.429-.536.14-.2.276-.405.409-.617a8.19 8.19 0 00.288-.507c.087-.166.17-.327.25-.486a5.27 5.27 0 00.448-.925c.113-.311.222-.626.329-.944a6.41 6.41 0 00.398-1.272c0-.013.007-.027.02-.04.013-.013.02-.033.02-.06.053-.107.093-.24.12-.398a4.81 4.81 0 01.08-.398.738.738 0 00.06-.219c0-.026-.014-.04-.04-.04 0-.012-.007-.012-.02 0l-.24.24a3.158 3.158 0 00-.418.317 4.216 4.216 0 01-.399.318l-.26.199c-.013.04-.06.086-.139.139a4.146 4.146 0 00-.408.338c-.127.119-.243.232-.349.337-.146.133-.28.252-.398.358-.12.106-.24.225-.36.358a8.494 8.494 0 00-.796.964c-.24.338-.472.7-.698 1.084a5.21 5.21 0 00-.308.705 2.624 2.624 0 00-.15.748z"/></g><defs><clipPath id="clip0"><path fill="#fff" transform="translate(1.75 3.25)" d="M0 0h44.5v17.5H0z"/></clipPath></defs></svg>