<svg width="21" height="17" viewBox="0 0 21 17" fill="none" xmlns="http://www.w3.org/2000/svg">
  <path
    d="M18.863 4.21928C19.6849 3.60482 20.4247 2.86747 21 2.00723C20.2603 2.33494 19.3973 2.58072 18.5342 2.66265C19.4384 2.13012 20.0959 1.31084 20.4247 0.286747C19.6027 0.778313 18.6575 1.14699 17.7123 1.35181C16.8904 0.491566 15.7808 0 14.5479 0C12.1644 0 10.2329 1.9253 10.2329 4.3012C10.2329 4.62892 10.274 4.95663 10.3562 5.28434C6.78082 5.07952 3.57534 3.35904 1.43836 0.778313C1.06849 1.39277 0.863014 2.13012 0.863014 2.9494C0.863014 4.4241 1.60274 5.73494 2.79452 6.51325C2.09589 6.47229 1.39726 6.30843 0.821918 5.98072V6.02169C0.821918 8.11084 2.30137 9.83133 4.27397 10.241C3.94521 10.3229 3.53425 10.4048 3.16438 10.4048C2.87671 10.4048 2.63014 10.3639 2.34247 10.3229C2.87671 12.0434 4.47945 13.2723 6.36986 13.3133C4.89041 14.4602 3.0411 15.1566 1.0274 15.1566C0.657534 15.1566 0.328767 15.1157 0 15.0747C1.89041 16.3036 4.15068 17 6.61644 17C14.5479 17 18.863 10.4867 18.863 4.79277C18.863 4.58795 18.863 4.4241 18.863 4.21928Z"
    fill="white" />
</svg>
