<svg width="28" height="28" viewBox="0 0 28 28" fill="none" xmlns="http://www.w3.org/2000/svg"><path fill-rule="evenodd" clip-rule="evenodd" d="M6 23c0-2.813 2.302-4.95 5.065-4.95h5.87C19.813 18.05 22 20.3 22 23" fill="#fff"/><path d="M6 23c0-2.813 2.302-4.95 5.065-4.95h5.87C19.813 18.05 22 20.3 22 23" stroke="#33817C" stroke-width="2" stroke-linecap="round" stroke-linejoin="round"/><path fill-rule="evenodd" clip-rule="evenodd" d="M17.51 6.35c1.957 1.912 1.957 4.95 0 6.75-1.956 1.8-5.064 1.912-6.906 0-1.841-1.912-1.957-4.95 0-6.75a5.092 5.092 0 016.907 0z" fill="#fff"/><path d="M17.51 6.35c1.957 1.912 1.957 4.95 0 6.75-1.956 1.8-5.064 1.912-6.906 0-1.841-1.912-1.957-4.95 0-6.75a5.092 5.092 0 016.907 0" stroke="#33817C" stroke-width="2" stroke-linecap="round" stroke-linejoin="round"/></svg>