<svg width="32" height="30" viewBox="0 0 32 30" fill="none" xmlns="http://www.w3.org/2000/svg">
  <path
    d="M16.0003 5.49626L14.5662 4.02222C11.2001 0.562114 5.02794 1.75615 2.79988 6.10628C1.75384 8.15234 1.51784 11.1064 3.42789 14.8765C5.26795 18.5067 9.09607 22.8548 16.0003 27.5909C22.9045 22.8548 26.7306 18.5067 28.5727 14.8765C30.4827 11.1044 30.2487 8.15234 29.2007 6.10628C26.9726 1.75615 20.8004 0.560114 17.4343 4.02022L16.0003 5.49626ZM16.0003 30.001C-14.6667 9.73639 6.55799 -6.08009 15.6483 2.28617C15.7683 2.39617 15.8863 2.51017 16.0003 2.62818C16.1131 2.51028 16.2306 2.39686 16.3523 2.28817C25.4406 -6.08409 46.6672 9.73439 16.0003 30.001Z"
    fill="#E32000" />
  <path
    d="M26.0001 19.9999C28.4001 17.9999 30.6668 12.4999 31.5001 9.99991C31.5001 8.49981 30 4.49997 27 1.99997C24 -0.500034 18.5 1.49991 17.5 2.49997C16.5 3.50003 16.5 5.99997 16.0001 4.49997C15.6002 3.29997 12.8334 1.99993 11.5 1.49991C10.8334 0.83324 8.4001 0.199907 4.0001 2.99991C-1.4999 6.49991 2.5001 14.9999 4.0001 17.9999C5.2001 20.3999 12.5001 25.9999 16.0001 28.4999C18.3334 26.4999 23.6001 21.9999 26.0001 19.9999Z"
    fill="#E32000" />
</svg>
