<svg width="21" height="15" viewBox="0 0 21 15" fill="none" xmlns="http://www.w3.org/2000/svg">
<path d="M20.5393 2.38281C20.309 1.44531 19.5795 0.703125 18.6965 0.46875C17.0457 0 10.5192 0 10.5192 0C10.5192 0 3.9543 0 2.30347 0.46875C1.42048 0.703125 0.691042 1.44531 0.460695 2.38281C0 4.02344 0 7.53906 0 7.53906C0 7.53906 0 11.0156 0.460695 12.6953C0.691042 13.6328 1.42048 14.3359 2.30347 14.5703C3.9543 15 10.5192 15 10.5192 15C10.5192 15 17.0457 15 18.6965 14.5703C19.5795 14.3359 20.309 13.6328 20.5393 12.6953C21 11.0156 21 7.53906 21 7.53906C21 7.53906 21 4.02344 20.5393 2.38281ZM8.36929 10.7031V4.375L13.8208 7.53906L8.36929 10.7031Z" fill="white"/>
</svg>
