<svg class="dn" height="0" width="0" xmlns="http://www.w3.org/2000/svg"><defs><path d="M1.125 4.5h13.75m-9.931 0V3c0-.398.161-.78.448-1.06.286-.282.675-.44 1.08-.44h3.056c.405 0 .794.158 1.08.44.287.28.448.662.448 1.06v1.5m2.291 0V15c0 .398-.16.78-.447 1.06a1.54 1.54 0 01-1.08.44H4.18a1.54 1.54 0 01-1.08-.44A1.486 1.486 0 012.653 15V4.5h10.694zM6.473 8.25v4.5m3.055-4.5v4.5" id="hpa-delete" fill="none" stroke="#999" stroke-width="1.4" stroke-linecap="round" stroke-linejoin="round"/><path d="M1.289 10.289A4.4 4.4 0 014.4 9h7.2a4.4 4.4 0 014.4 4.4v1.8a.8.8 0 01-1.6 0v-1.8a2.8 2.8 0 00-2.8-2.8H4.4a2.8 2.8 0 00-2.8 2.8v1.8a.8.8 0 01-1.6 0v-1.8a4.4 4.4 0 011.289-3.111zM8 1.6a1.9 1.9 0 100 3.8 1.9 1.9 0 000-3.8zM4.5 3.5a3.5 3.5 0 117 0 3.5 3.5 0 01-7 0z" id="hpa-profile" fill-rule="evenodd" clip-rule="evenodd" fill="#414042"/><path fill-rule="evenodd" clip-rule="evenodd" d="M2.25 7.232a4.982 4.982 0 119.963 0 4.982 4.982 0 01-9.963 0zM7.232 1.75a5.482 5.482 0 103.703 9.523.249.249 0 00.044.06l2.844 2.844a.25.25 0 10.354-.354l-2.845-2.845a.25.25 0 00-.059-.043A5.482 5.482 0 007.231 1.75z" fill="currentColor" id="hpa-search"/><path id="nav-caret--left" xmlns="http://www.w3.org/2000/svg" fill-rule="evenodd" clip-rule="evenodd" d="M0 5.408L5 .5l5 4.908H5.636V30.5h-1.27V5.408H.002z" fill="#000"/><path id="nav-caret--right" xmlns="http://www.w3.org/2000/svg" fill-rule="evenodd" clip-rule="evenodd" d="M0 25.592L5 30.5l5-4.908H5.635V.5h-1.27v25.092H0z" fill="#000"/><path d="M14.875 1.125l-13.75 13.75m0-13.75l13.75 13.75" id="sti-close--line" stroke="#000" stroke-linecap="round" stroke-linejoin="round"/><path d="M1.333 8.333L4.666 5 1.333 1.667" stroke="#000" stroke-width="1.6" stroke-linecap="round" stroke-linejoin="round" id="nav-thin-caret--right"/><path d="M4.666 1.667L1.333 5l3.333 3.333" stroke="#000" stroke-width="1.6" stroke-linecap="round" stroke-linejoin="round" id="nav-thin-caret--left"/><path id="arrows-menu" xmlns="http://www.w3.org/2000/svg" d="M1 .75l4.5 4.5L10 .75" stroke="#000" stroke-linecap="round" stroke-linejoin="round"/><path d="M3.375 13.5H13.5M3.375 6.75h20.25m-20.25 13.5h20.25" id="hpa-hamburguer-menu" fill-rule="evenodd" clip-rule="evenodd" fill="currentColor" stroke="#000" stroke-width="1.5" stroke-linejoin="round"/><g id="hpa-cart" stroke="#323232" stroke-width="1.5" stroke-linecap="round" stroke-linejoin="round"><path d="M6.714 7.453l-.75-3.375h-2.17"/><path fill-rule="evenodd" clip-rule="evenodd" d="M8.698 16.69L6.716 7.452h14.24c.717 0 1.25.66 1.1 1.361l-1.69 7.875c-.11.519-.569.89-1.1.89H9.797c-.53 0-.988-.371-1.099-.89z"/><path d="M19.648 21.656a.422.422 0 10.005.843.422.422 0 00-.005-.843m-9.685 0a.419.419 0 00-.42.422.42.42 0 10.843 0 .422.422 0 00-.423-.422"/></g><g id="minicart-empty" fill="none" stroke="#009444" stroke-width="6" stroke-linecap="round" stroke-linejoin="round"><path d="M27.358 30.365l-3.057-13.75H15.46"/><path fill-rule="evenodd" clip-rule="evenodd" d="M35.433 67.994l-8.076-37.63h58.016c2.92 0 5.092 2.691 4.483 5.546l-6.884 32.084a4.582 4.582 0 01-4.483 3.62H39.911a4.58 4.58 0 01-4.478-3.62z"/><path d="M80.048 88.23c-.95 0-1.72.77-1.71 1.718a1.72 1.72 0 003.438 0 1.727 1.727 0 00-1.728-1.719m-39.458.001c-.95 0-1.72.77-1.71 1.718a1.713 1.713 0 001.714 1.719 1.72 1.72 0 10-.005-3.438"/></g><g id="hpa-location-marker" stroke="#fff" stroke-width="1.6" stroke-linecap="round" stroke-linejoin="round"><path d="M19 10c0 7-9 13-9 13s-9-6-9-13a9 9 0 1118 0z"/><path d="M10 13a3 3 0 100-6 3 3 0 000 6z"/></g><g id="mpa-truck" fill-rule="evenodd" clip-rule="evenodd" fill="#3C3C3B"><path d="M.75 2A.25.25 0 011 1.75h9.545a.25.25 0 01.25.25v8.666a.25.25 0 01-.25.25H1a.25.25 0 01-.25-.25V2zm.5.25v8.166h9.045V2.25H1.25z"/><path d="M10.296 5.333a.25.25 0 01.25-.25h2.545a.25.25 0 01.18.078l1.91 2a.25.25 0 01.07.172v3.333a.25.25 0 01-.25.25h-4.455a.25.25 0 01-.25-.25V5.333zm.5.25v4.833h3.954V7.433l-1.766-1.85h-2.188zm-6.932 5.334c-.73 0-1.34.623-1.34 1.416 0 .794.61 1.417 1.34 1.417.73 0 1.34-.623 1.34-1.417 0-.793-.61-1.416-1.34-1.416zm-1.84 1.416c0-1.047.813-1.916 1.84-1.916 1.028 0 1.84.869 1.84 1.916 0 1.048-.812 1.917-1.84 1.917-1.027 0-1.84-.87-1.84-1.917z"/><path d="M12.137 10.917c-.73 0-1.341.623-1.341 1.416 0 .794.61 1.417 1.34 1.417.73 0 1.341-.623 1.341-1.417 0-.793-.61-1.416-1.34-1.416zm-1.841 1.416c0-1.047.813-1.916 1.84-1.916 1.028 0 1.841.869 1.841 1.916 0 1.048-.813 1.917-1.84 1.917-1.028 0-1.841-.87-1.841-1.917z"/></g><g id="mpa-home" stroke="#0067C7" stroke-width="2" stroke-linecap="round" stroke-linejoin="round"><path d="M1 8.7L11 1l10 7.7v12.1c0 .584-.234 1.143-.65 1.556a2.234 2.234 0 01-1.572.644H3.222c-.59 0-1.154-.232-1.571-.644A2.189 2.189 0 011 20.8V8.7z"/><path d="M7.667 23V12h6.667v11"/></g><g id="hpa-search" fill-rule="evenodd" clip-rule="evenodd" fill="#999"><path d="M7.054 1.23a5.824 5.824 0 100 11.648 5.824 5.824 0 000-11.647zM0 7.055a7.054 7.054 0 1114.109 0A7.054 7.054 0 010 7.054z"/><path d="M11.448 11.448c.24-.24.63-.24.87 0l3.502 3.501a.615.615 0 01-.87.87l-3.502-3.5a.615.615 0 010-.87z"/></g><g id="hpa-search" fill-rule="evenodd" clip-rule="evenodd" fill="#999"><path d="M7.054 1.23a5.824 5.824 0 100 11.648 5.824 5.824 0 000-11.647zM0 7.055a7.054 7.054 0 1114.109 0A7.054 7.054 0 010 7.054z"/><path d="M11.448 11.448c.24-.24.63-.24.87 0l3.502 3.501a.615.615 0 01-.87.87l-3.502-3.5a.615.615 0 010-.87z"/></g></defs></svg>