<svg width="11" height="21" viewBox="0 0 11 21" fill="none" xmlns="http://www.w3.org/2000/svg"><path d="M9.754.005h-3.06c-3.898-.04-4.396 2.373-4.396 4.983v1.898H.578a.51.51 0 00-.574.574v3.44a.51.51 0 00.574.574h1.72v8.602a.515.515 0 00.577.574H6.38c.339.039.613-.235.505-.574l.002-8.602h2.868a.51.51 0 00.573-.573V7.46a.51.51 0 00-.573-.574H6.883l.003-1.72c.111-.733.111-.614.792-.574H9.73c.159-.035.329-.016.448-.132a.46.46 0 00.148-.441V.578a.51.51 0 00-.572-.573zM9.14 3.38l-1.438-.055c-1.782 0-1.93.967-1.93 1.957l-.005 2.174a.613.613 0 00.612.614H9.18v2.216H6.382a.614.614 0 00-.614.612l-.001 8.604H3.445V10.9c0-.339-.23-.613-.57-.613H1.151V8.072h1.724a.613.613 0 00.434-.179c.115-.116.135-.272.135-.434V4.987c0-2.572.52-3.797 3.248-3.797H9.14v2.191h.001z" fill="#fff"/></svg>