<svg width="37" height="23" viewBox="0 0 37 23" fill="none" xmlns="http://www.w3.org/2000/svg"><path d="M24.637 0C31.18 0 36.5 3.163 36.5 7.052v8.245a6.579 6.579 0 01-2.87 5.417 12.435 12.435 0 01-5.936 2.136.556.556 0 01-.238.059c-.05 0-.097-.017-.143-.03-.256.015-.511.03-.768.03h-25.5A.543.543 0 01.5 22.37v-8.806c0-.297.246-.537.546-.537h11.73V7.052c0-3.89 5.32-7.052 11.861-7.052zM35.41 10c-1.881 2.419-6 4.102-10.772 4.102H1.593v7.732h3.365v-3.05a.54.54 0 01.545-.535.54.54 0 01.546.536v3.05h2.567V19.64c0-.297.245-.537.545-.537.302 0 .546.24.546.537v2.193h2.568v-3.05a.54.54 0 01.546-.535.54.54 0 01.546.536v3.05h2.568V19.64a.54.54 0 01.546-.537c.3 0 .544.24.544.537v2.193h2.568v-3.05a.54.54 0 01.546-.535c.301 0 .547.239.547.536v3.05h2.567V19.64a.54.54 0 01.544-.537.54.54 0 01.545.537v2.193h2.203c.122 0 .245-.01.366-.014v-3.035a.54.54 0 01.545-.536.54.54 0 01.546.536v2.95a11.308 11.308 0 005.003-1.902 5.506 5.506 0 002.404-4.536V10zM24.637 1.075c-5.94 0-10.77 2.681-10.77 5.978 0 3.296 4.83 5.976 10.77 5.976 5.94 0 10.772-2.68 10.772-5.976 0-3.297-4.832-5.978-10.772-5.978zm-10.77 8.927v3.027h4.488c-1.947-.726-3.515-1.78-4.487-3.027zm10.77-6.779c5.244 0 8.59 2.268 8.59 3.829 0 1.561-3.346 3.83-8.59 3.83s-8.588-2.269-8.588-3.83 3.345-3.829 8.588-3.829zm0 1.073c-4.838 0-7.497 2.071-7.497 2.756 0 .686 2.659 2.756 7.497 2.756 4.84 0 7.5-2.07 7.5-2.756 0-.685-2.66-2.756-7.5-2.756z" fill="#000"/></svg>