<svg width="27" height="23" viewBox="0 0 27 23" fill="none" xmlns="http://www.w3.org/2000/svg"><path fill-rule="evenodd" clip-rule="evenodd" d="M24.136 2.526a6.572 6.572 0 00-9.296 0l-.133.131-1.233 1.235-1.235-1.235-.132-.131a6.57 6.57 0 00-9.295 0 6.544 6.544 0 00-1.925 4.6v.046a6.568 6.568 0 001.925 4.648l.264.264 1.102 1.103.718.718 1.82 1.82 1.82 1.82 1.819 1.82 3.119 3.117 3.12-3.118 1.817-1.82 1.822-1.819 1.82-1.82 1.82-1.821.263-.264a6.56 6.56 0 001.924-4.694 6.56 6.56 0 00-1.924-4.6z" fill="#A6EEFF"/><path fill-rule="evenodd" clip-rule="evenodd" d="M20.23 15.725l-1.82 1.82a6.963 6.963 0 00-4.936-2.05 6.961 6.961 0 00-4.938 2.05l-1.821-1.82a9.528 9.528 0 016.759-2.805 9.524 9.524 0 016.756 2.805z" fill="#52DBFF"/><path fill-rule="evenodd" clip-rule="evenodd" d="M26.06 7.128A6.547 6.547 0 0125.42 10a17.227 17.227 0 00-11.947-4.806 17.22 17.22 0 00-11.95 4.807 6.585 6.585 0 01-.637-2.829v-.045a19.773 19.773 0 0111.352-4.47l1.235 1.235 1.233-1.235a19.774 19.774 0 0111.352 4.47z" fill="#FA496E"/><path fill-rule="evenodd" clip-rule="evenodd" d="M25.422 10a6.518 6.518 0 01-1.286 1.82l-.264.265A14.669 14.669 0 0013.473 7.77c-4.055 0-7.733 1.65-10.398 4.315l-.263-.265A6.522 6.522 0 011.524 10a17.226 17.226 0 0111.95-4.805c4.63 0 8.84 1.83 11.948 4.806z" fill="#FF8522"/><path fill-rule="evenodd" clip-rule="evenodd" d="M23.872 12.084l-1.82 1.82a12.1 12.1 0 00-8.578-3.559 12.095 12.095 0 00-8.579 3.56l-.718-.718-1.103-1.103a14.671 14.671 0 0110.4-4.313 14.67 14.67 0 0110.398 4.313z" fill="#FD0"/><path fill-rule="evenodd" clip-rule="evenodd" d="M22.052 13.905l-1.821 1.82a9.529 9.529 0 00-6.758-2.804 9.524 9.524 0 00-6.758 2.803l-1.82-1.82a12.097 12.097 0 018.578-3.559 12.1 12.1 0 018.579 3.56z" fill="#00DCAB"/><path fill-rule="evenodd" clip-rule="evenodd" d="M18.41 17.545l-1.819 1.82a4.393 4.393 0 00-3.119-1.293 4.39 4.39 0 00-3.118 1.293l-1.82-1.82a6.966 6.966 0 014.938-2.049c1.927 0 3.673.783 4.938 2.05z" fill="#A67EFF"/><mask id="a" style="mask-type:alpha" maskUnits="userSpaceOnUse" x="0" y="0" width="27" height="23"><path d="M.5.215h25.946v22.654H.5V.215z" fill="#fff"/></mask><g mask="url(#a)"><path fill-rule="evenodd" clip-rule="evenodd" d="M23.867 11.542a14.986 14.986 0 00-10.394-4.158c-3.9 0-7.574 1.473-10.396 4.158a6.245 6.245 0 01-1.08-1.456 16.811 16.811 0 0111.476-4.505c1.754 0 3.485.27 5.143.8a.386.386 0 00.236-.736 17.63 17.63 0 00-5.379-.835 17.574 17.574 0 00-11.81 4.536 6.139 6.139 0 01-.39-2.034A19.3 19.3 0 0112.09 3.056l1.11 1.11a.386.386 0 00.547 0l1.109-1.11A19.303 19.303 0 0125.67 7.31a6.16 6.16 0 01-.39 2.034 17.597 17.597 0 00-5.153-3.234.386.386 0 00-.292.715c1.89.77 3.61 1.868 5.112 3.261a6.211 6.211 0 01-1.08 1.456zM13.473 21.936l-2.56-2.559a3.998 3.998 0 012.56-.92c.945 0 1.84.325 2.559.92l-2.559 2.559zm4.382-4.382l-1.275 1.275a4.755 4.755 0 00-3.107-1.145 4.763 4.763 0 00-3.11 1.145L9.09 17.554a6.548 6.548 0 014.384-1.672 6.54 6.54 0 014.382 1.672zm-4.382-2.445a7.31 7.31 0 00-4.931 1.897L7.267 15.73a9.105 9.105 0 016.206-2.424c2.317 0 4.506.859 6.206 2.424l-1.275 1.276a7.314 7.314 0 00-4.93-1.897zm8.574-1.746a12.434 12.434 0 00-8.574-3.404c-2.035 0-4.056.501-5.846 1.45a.387.387 0 00.362.684 11.736 11.736 0 015.484-1.361c3.004 0 5.839 1.126 8.027 3.177l-1.276 1.276a9.863 9.863 0 00-6.75-2.65 9.87 9.87 0 00-6.754 2.65l-1.274-1.276c.493-.46 1.025-.882 1.588-1.252a.386.386 0 10-.425-.645c-.606.398-1.18.852-1.71 1.35L3.625 12.09a14.217 14.217 0 019.848-3.932c3.692 0 7.173 1.393 9.847 3.932l-1.273 1.274zM3.083 2.799a6.196 6.196 0 018.246-.453 20.053 20.053 0 00-9.995 3.938 6.143 6.143 0 011.75-3.485zm22.5 1.016a.383.383 0 00-.522-.15.384.384 0 00-.154.524c.358.647.594 1.36.7 2.093a20.042 20.042 0 00-9.992-3.936 6.142 6.142 0 013.872-1.36 6.147 6.147 0 014.765 2.242.386.386 0 00.595-.495 7.038 7.038 0 00-.44-.48 6.915 6.915 0 00-4.92-2.04 6.918 6.918 0 00-4.921 2.04l-1.093 1.093-1.095-1.094a6.966 6.966 0 00-9.84 0 6.91 6.91 0 00-2.04 4.921c0 1.859.724 3.607 2.039 4.921l10.662 10.663c.073.071.17.113.274.113.102 0 .2-.042.273-.113l10.661-10.663a6.884 6.884 0 001.976-3.988 6.994 6.994 0 00-.8-4.29z" fill="#000"/></g></svg>