<svg width="25" height="24" viewBox="0 0 25 24" fill="none" xmlns="http://www.w3.org/2000/svg"><path d="M20.421 10.05V7.637c0-.287-.21-.518-.47-.518s-.472.23-.472.518v15.296H5.488V7.638c0-.287-.211-.518-.471-.518s-.47.23-.47.518v2.416L1.65 6.817 6.134 2.39 9.08 1.216c.366 2.077 2.186 3.432 4.068 3.03 1.39-.298 2.476-1.497 2.746-3.03l2.948 1.174 4.469 4.427-2.89 3.232zm3.949-3.625l-.016-.018L19.4 1.548a.475.475 0 00-.156-.104L15.659.031c-.244-.097-.514.042-.603.312a.545.545 0 00-.027.152c0 .113-.156 2.748-2.543 2.79C10.084 3.242 9.933.607 9.928.494c-.014-.288-.235-.507-.497-.493a.465.465 0 00-.13.029L5.724 1.46a.453.453 0 00-.155.104L.646 6.407a.557.557 0 000 .754l3.918 4.369v11.95c0 .287.211.52.472.52h14.928c.26 0 .471-.233.471-.52V11.53l3.92-4.37a.559.559 0 00.015-.735z" fill="#000"/></svg>