<svg width="33" height="27" viewBox="0 0 33 27" fill="none" xmlns="http://www.w3.org/2000/svg"><path d="M31.191 3.322c-.503 1.07-1.017 2.136-1.531 3.204-.878 1.82-1.784 3.705-2.622 5.587-.377.851-.53 1.415-.989 3.09-.214.78-.494 1.809-.898 3.229-1.132 3.995-3.847 4.135-3.962 4.14l.015.526.01.527c.076-.001 1.012-.039 2.09-.705v2.676H12.322l-.002-.344c.015-.134.343-3.271-1.352-4.892-2.284-2.22-3.267-4.4-3.27-4.406-.113-.282-2.807-6.936-5.22-8.8-.624-.48-.951-.934-.921-1.275.033-.372.5-.626.538-.647.035-.018.849-.472 2.121.27 1.203.701 2.053 1.695 3.131 2.953.273.318.558.652.862.997.973 1.1 2.069 1.338 2.892 1.277-.006.304.039.61.147.906a2.48 2.48 0 003.191 1.49c.376-.135.697-.361.96-.642.238.468.618.867 1.127 1.107a2.42 2.42 0 001.855.08c.153-.056.27-.165.407-.246.012.038.016.077.03.115a2.41 2.41 0 002.273 1.598c.279 0 .56-.049.834-.148a2.412 2.412 0 001.37-1.251l3.494-7.487c.053-.113.086-.227.12-.343l.02.009 1.55-3.062c.074-.143.145-.3.217-.461.198-.444.401-.903.709-1.104.415-.268 1.037-.249 1.486.044.627.408.728 1.076.3 1.988zm-18.905 6.853l3.62-7.754a1.438 1.438 0 011.912-.697c.694.326.995 1.135.713 1.838l-3.176 6.803c-.023.049-.032.097-.051.145l-.412.883c-.161.346-.45.608-.812.74a1.431 1.431 0 01-1.841-.859 1.432 1.432 0 01.047-1.099zM20.58 2.62a1.334 1.334 0 011.045.044c.332.153.582.428.707.774.109.299.092.614-.01.91l-3.425 7.338c-.041.084-.064.175-.094.264l-.01.02a1.375 1.375 0 01-1.822.664 1.368 1.368 0 01-.68-1.743l3.178-6.807c.022-.047.03-.097.05-.144l.287-.615c.153-.33.428-.58.774-.705zm4.012 1.234a1.372 1.372 0 011.24 1.95l-3.495 7.487a1.37 1.37 0 01-2.528-.111c-.11-.302-.09-.617.01-.91l3.425-7.34c.041-.085.065-.176.095-.265l.01-.02a1.37 1.37 0 011.243-.79zM31.466.45c-.81-.528-1.873-.543-2.637-.042-.567.37-.849 1-1.097 1.557-.065.143-.127.283-.193.413l-.84 1.658a2.413 2.413 0 00-1.08-1.008 2.434 2.434 0 00-2.276.119c-.007-.023-.009-.045-.018-.07a2.409 2.409 0 00-1.251-1.368 2.402 2.402 0 00-1.853-.082c-.273.1-.508.257-.723.437A2.475 2.475 0 0018.265.77a2.48 2.48 0 00-1.906-.082 2.483 2.483 0 00-1.41 1.288l-3.566 7.643c-.404.111-1.405.24-2.382-.864a85.488 85.488 0 01-.853-.985c-1.096-1.281-2.045-2.388-3.4-3.177-1.847-1.078-3.149-.293-3.161-.284-.101.05-.987.522-1.08 1.464-.072.739.376 1.485 1.326 2.219 2.187 1.687 4.86 8.291 4.893 8.373.042.096 1.067 2.38 3.51 4.756 1.319 1.262 1.04 3.987 1.032 4.073v1.458h13.09v-4.587c.7-.727 1.367-1.784 1.809-3.343.404-1.426.686-2.457.9-3.24.453-1.66.59-2.162.937-2.94.83-1.867 1.733-3.742 2.607-5.557.515-1.07 1.031-2.14 1.535-3.214.65-1.38.396-2.622-.68-3.321z" fill="#000"/></svg>