<svg width="24" height="24" viewBox="0 0 24 24" fill="none" xmlns="http://www.w3.org/2000/svg"><path d="M12.05 21.932l-.024-.023-.021.02-.895-.936h0l-.001-.002-8.549-8.549a5.9 5.9 0 010-8.344l.324-.324a5.9 5.9 0 018.344 0l.004.004v.001l.72.734.072.072.071-.072.727-.736s0 0 0 0a5.9 5.9 0 018.347-.003l.07-.07-.07.07.324.324-9.443 17.834zm0 0l.833-.88.002-.002h0l8.608-8.608-9.443 9.49zm8.523-10.41h0a4.605 4.605 0 000-6.504h0l-.323-.324a4.6 4.6 0 00-6.506 0h0L12.02 6.438l-1.714-1.746h-.001a4.6 4.6 0 00-6.503.002s0 0 0 0l-.324.323h0a4.6 4.6 0 000 6.506l8.477 8.476.07.071.071-.07 8.476-8.477zm2.645-3.252c0 1.564-.62 3.065-1.725 4.172V4.098a5.907 5.907 0 011.725 4.172z" fill="#000" stroke="#fff" stroke-width=".2"/></svg>