<svg xmlns="http://www.w3.org/2000/svg" width="24" height="24" viewBox="0 0 24 24" fill="none"><path d="M23 19.496h0a1.35 1.35 0 00.85-1.252V5.25s0 0 0 0a.6.6 0 00-.377-.557l-.472 14.802zm0 0l-10.777 4.311h0a.6.6 0 01-.446 0h0L1 19.497h0a1.35 1.35 0 01-.851-1.254V5.251s0 0 0 0a.6.6 0 01.103-.337L.13 4.83l.124.085a.6.6 0 01.274-.221L11.22.416s0 0 0 0a2.1 2.1 0 011.56 0s0 0 0 0l10.693 4.278-.472 14.802zM2.714 5.111l-.348.14.348.139 9.231 3.691.056.023.056-.023 9.23-3.691.349-.14-.348-.139-8.952-3.58a.9.9 0 00-.67 0L2.713 5.11zM22.65 6.36v-.221l-.206.082-9.75 3.9-.094.038v12.206l.206-.083 9.75-3.9.094-.037V6.359zM11.194 22.283l.206.082V10.156l-.094-.038-9.75-3.898-.206-.082v12.207l.094.038 9.75 3.9z" fill="#000" stroke="#fff" stroke-width=".3"/></svg>