<svg width="22" height="21" viewBox="0 0 22 21" fill="none" xmlns="http://www.w3.org/2000/svg"><path d="M10.893 5.543a4.903 4.903 0 100 9.806 4.903 4.903 0 000-9.806zm0 8.527a3.624 3.624 0 110-7.247 3.624 3.624 0 010 7.247zM15.583 0h-9.38A5.763 5.763 0 00.447 5.756v9.38a5.763 5.763 0 005.756 5.756h9.38a5.763 5.763 0 005.756-5.756v-9.38A5.762 5.762 0 0015.583 0zm4.477 15.136a4.482 4.482 0 01-4.477 4.477h-9.38a4.483 4.483 0 01-4.477-4.477v-9.38a4.482 4.482 0 014.477-4.477h9.38a4.482 4.482 0 014.477 4.477v9.38z" fill="#fff"/></svg>