<svg width="223" height="40" viewBox="0 0 223 40" fill="none" xmlns="http://www.w3.org/2000/svg"><g clip-path="url(#clip0_3133:118504)"><g clip-path="url(#clip1_3133:118504)" fill="#000"><path d="M20.549 20.848c.488.543.733 1.35.733 2.422 0 1.426-.412 2.498-1.235 3.218-.823.72-2.19 1.08-4.103 1.078H.552V13.03h15.231c1.74 0 3 .32 3.783.957.782.638 1.174 1.561 1.174 2.769 0 .774-.188 1.402-.562 1.884-.375.481-.923.804-1.646.967v.162c.856.177 1.529.537 2.017 1.08zm-6.833-3.136c0-.72-.421-1.079-1.264-1.079H7.134v2.158h5.318c.843 0 1.264-.36 1.264-1.079zm.361 5.212c0-.787-.461-1.18-1.384-1.18h-5.56v2.361h5.56c.923 0 1.384-.394 1.384-1.18zm26.701 3.879c.016.223.073.44.17.641v.122h-6.382c-.134-.19-.2-.556-.2-1.099V26.1c-.549.611-1.358 1.093-2.428 1.446-1.07.353-2.355.53-3.854.53-1.793 0-3.254-.29-4.384-.866-1.13-.577-1.696-1.524-1.696-2.84 0-1.25.37-2.145 1.113-2.688.742-.543 1.862-.862 3.361-.957l6.342-.428c.428-.027.739-.088.933-.183.194-.095.29-.258.29-.489 0-.258-.166-.444-.5-.56-.334-.115-.849-.173-1.545-.173-.629 0-1.144.078-1.546.234-.401.157-.682.411-.842.764h-6.863c.054-1.045.435-1.85 1.144-2.413.71-.563 1.706-.95 2.99-1.16 1.284-.21 2.95-.315 4.996-.315 2.1 0 3.777.091 5.027.275 1.251.183 2.205.536 2.86 1.059.655.522.983 1.286.983 2.29v6.19c0 .42.01.75.03.987zm-6.512-4.286c-.201.122-.543.21-1.024.265l-3.11.407c-.509.068-.874.183-1.095.346-.22.163-.33.4-.33.712 0 .326.14.557.421.692.28.135.716.203 1.304.203 1.097 0 2.01-.193 2.74-.58.73-.386 1.094-.973 1.094-1.76v-.285zm29.438 5.049h-6.883l-1.987-5.497h-.12l-1.966 5.497h-7.145l-5.037-11.034h7.084l1.966 5.334h.12l1.928-5.334h6.04l2.027 5.273h.12l1.867-5.273h7.003l-5.017 11.034zm25.989-9.864c-.59-.4-1.412-.6-2.469-.6-1.27 0-2.25.274-2.94.824-.689.55-1.033 1.34-1.033 2.371 0 1.032.344 1.823 1.033 2.372.69.55 1.67.825 2.94.825 1.084 0 1.917-.213 2.499-.64.582-.428.912-.988.992-1.68h7.786c-.053 2.361-.99 4.112-2.81 5.252-1.819 1.14-4.614 1.71-8.386 1.71-3.827 0-6.66-.637-8.5-1.913-1.839-1.276-2.758-3.251-2.758-5.925s.92-4.649 2.759-5.925c1.84-1.276 4.672-1.913 8.499-1.914 3.758 0 6.548.553 8.368 1.66 1.82 1.106 2.75 2.772 2.79 4.998h-7.766c-.081-.543-.416-1.015-1.004-1.415zm9.732-4.877h6.502v14.741h-6.502v-14.74zm24.472 4.694c1.492 1.011 2.238 2.521 2.238 4.53 0 2.008-.749 3.515-2.248 4.52-1.498 1.003-3.966 1.505-7.405 1.506-3.451 0-5.926-.502-7.425-1.506-1.498-1.005-2.247-2.511-2.247-4.52 0-2.009.749-3.519 2.247-4.53 1.499-1.012 3.974-1.517 7.425-1.517 3.452 0 5.924.505 7.415 1.517zm-4.465 4.53c0-.692-.234-1.218-.702-1.578-.469-.36-1.218-.54-2.248-.54-1.03 0-1.779.18-2.247.54-.469.36-.703.886-.703 1.578 0 .678.234 1.198.703 1.557.468.36 1.217.54 2.247.54 1.967 0 2.95-.7 2.95-2.097zm18.745.977v4.54c-.362.041-.897.082-1.606.123a35.48 35.48 0 01-2.066.06c-1.619 0-2.87-.132-3.753-.396-.883-.265-1.506-.693-1.867-1.283s-.542-1.422-.542-2.494v-3.828h-2.087v-3.216h2.087V13.6h6.502v2.932h3.351v3.218h-3.351v2.523c0 .326.093.543.281.651.187.108.541.163 1.063.163.803 0 1.466-.02 1.988-.06zm17.558-5.721c1.004.72 1.505 1.812 1.506 3.278v6.983h-6.503v-4.703c0-.719-.19-1.235-.572-1.547-.381-.312-.953-.469-1.715-.468-.803 0-1.465.183-1.987.55-.522.366-.783 1.004-.783 1.913v4.255h-6.482v-14.74h6.482v5.11h.121c1.364-1.14 3.244-1.71 5.638-1.71 1.86 0 3.292.36 4.295 1.079zm2.548-4.561h6.583v2.627h-6.583v-2.627zm.04 3.788h6.502v11.034h-6.502V16.532zm13.968 1.424h.12a7.809 7.809 0 012.458-1.282c.93-.299 2.031-.448 3.302-.448 1.859 0 3.291.36 4.294 1.079 1.003.72 1.505 1.819 1.505 3.298v6.962h-6.502v-4.702c0-.705-.194-1.218-.582-1.537-.388-.32-.957-.479-1.706-.479-.803 0-1.465.187-1.987.56-.522.374-.783 1.015-.782 1.924v4.235h-6.502V16.532h6.382v1.424zm31.646-1.424V26.67c0 1.303-.207 2.284-.622 2.943-.415.658-1.284 1.143-2.609 1.455-1.324.312-3.378.468-6.161.468-2.649 0-4.649-.156-6-.468-1.351-.312-2.257-.75-2.719-1.313-.462-.563-.733-1.327-.813-2.29h7.085c.147.338.401.603.762.794.362.19.924.286 1.686.285.776 0 1.375-.061 1.796-.184.421-.122.712-.315.873-.58.161-.264.241-.634.241-1.11v-1.384h-.14c-1.231.923-2.904 1.384-5.017 1.384-2.489 0-4.352-.427-5.589-1.282-1.238-.855-1.857-2.165-1.857-3.93 0-1.791.618-3.111 1.856-3.96 1.237-.848 3.1-1.272 5.589-1.272 1.11 0 2.084.122 2.92.367a6.75 6.75 0 012.217 1.099h.14v-1.16h6.362zm-7.034 6.19c.502-.3.753-.72.753-1.263 0-.543-.251-.963-.753-1.262-.501-.299-1.287-.448-2.358-.448-1.057 0-1.816.143-2.277.427-.462.285-.693.713-.693 1.283s.231.998.693 1.283c.461.284 1.22.427 2.277.427 1.07 0 1.856-.15 2.358-.448zm22.607-9.032a7.184 7.184 0 012.578 2.607 7.025 7.025 0 01.953 3.594c0 1.29-.317 2.484-.953 3.583a7.168 7.168 0 01-2.578 2.616 6.784 6.784 0 01-3.532.967 6.845 6.845 0 01-3.543-.967 7.14 7.14 0 01-2.588-2.616 7.03 7.03 0 01-.953-3.583c0-1.303.317-2.501.953-3.594a7.176 7.176 0 012.578-2.606 6.819 6.819 0 013.552-.968c1.272 0 2.449.323 3.533.968zm-.753 11.077a5.622 5.622 0 002.017-2.057 5.565 5.565 0 00.742-2.82 5.527 5.527 0 00-.742-2.8 5.626 5.626 0 00-2.017-2.056 5.308 5.308 0 00-2.779-.763 5.308 5.308 0 00-2.779.764 5.709 5.709 0 00-2.027 2.056 5.476 5.476 0 00-.752 2.8c0 1.018.251 1.958.752 2.82a5.705 5.705 0 002.027 2.056 5.31 5.31 0 002.78.763 5.305 5.305 0 002.778-.763zm.08-4.693a1.917 1.917 0 01-.913.793l1.466 2.444h-2.429l-1.143-2.159h-.823v2.159h-2.107v-6.882h3.613c.829 0 1.478.207 1.946.621.468.414.702.994.702 1.741 0 .502-.104.93-.312 1.283zm-3.842-.53h1.103c.295 0 .519-.068.672-.204a.696.696 0 00.231-.55.696.696 0 00-.231-.549c-.154-.136-.377-.204-.672-.204h-1.103v1.507z"/></g></g><defs><clipPath id="clip0_3133:118504"><path fill="#fff" transform="translate(0 .5)" d="M0 0h223v39H0z"/></clipPath><clipPath id="clip1_3133:118504"><path fill="#fff" transform="translate(.552 12.46)" d="M0 0h222.49v19.077H0z"/></clipPath></defs></svg>