<svg width="29" height="29" viewBox="0 0 29 29" fill="none" xmlns="http://www.w3.org/2000/svg"><g clip-path="url(#clip0_5885:62573)"><path d="M15.75 11.094h.15v-.9a3.9 3.9 0 00-7.8 0v.9h7.65zm1.35-.15v.15h5.25v14.85a2.85 2.85 0 01-2.85 2.85h-15a2.85 2.85 0 01-2.85-2.85v-14.85H6.9v-.9a5.1 5.1 0 0110.2 0v.75zM3 12.294h-.15v13.65a1.65 1.65 0 001.65 1.65h15a1.65 1.65 0 001.65-1.65v-13.65H3z" fill="#000" stroke="#fff" stroke-width=".3"/></g><circle cx="20.802" cy="9.057" r="8" fill="#000"/><path d="M20.81 13.168c-.945 0-1.64-.316-2.089-.948-.448-.64-.672-1.5-.672-2.58 0-.712.092-1.328.276-1.848.192-.528.492-.936.9-1.224.408-.296.936-.444 1.584-.444.632 0 1.152.144 1.56.432.408.288.708.696.9 1.224.2.528.3 1.148.3 1.86 0 .696-.1 1.312-.3 1.848-.192.528-.492.94-.9 1.236-.408.296-.928.444-1.56.444zm-.013-.648c.704 0 1.22-.252 1.548-.756.328-.512.492-1.22.492-2.124 0-.896-.16-1.596-.48-2.1-.32-.512-.84-.768-1.56-.768-.688 0-1.196.248-1.524.744-.328.488-.492 1.196-.492 2.124 0 .896.156 1.6.468 2.112.32.512.836.768 1.548.768z" fill="#fff"/><defs><clipPath id="clip0_5885:62573"><path fill="#fff" transform="translate(0 4.944)" d="M0 0h24v24H0z"/></clipPath></defs></svg>