<svg width="287" height="24" viewBox="0 0 287 24" fill="none" xmlns="http://www.w3.org/2000/svg"><rect x=".379" width="34" height="24" rx="4" fill="#fff"/><path fill-rule="evenodd" clip-rule="evenodd" d="M17.558 16.83a6.803 6.803 0 01-4.398 1.6c-3.745 0-6.781-3-6.781-6.7s3.036-6.7 6.78-6.7c1.679 0 3.215.603 4.399 1.6a6.802 6.802 0 014.398-1.6c3.745 0 6.78 3 6.78 6.7s-3.035 6.7-6.78 6.7a6.802 6.802 0 01-4.398-1.6z" fill="#ED0006"/><path fill-rule="evenodd" clip-rule="evenodd" d="M17.558 16.83a6.653 6.653 0 002.383-5.1c0-2.042-.925-3.87-2.383-5.1a6.802 6.802 0 014.398-1.6c3.745 0 6.781 3 6.781 6.7s-3.036 6.7-6.78 6.7a6.803 6.803 0 01-4.399-1.6z" fill="#F9A000"/><path fill-rule="evenodd" clip-rule="evenodd" d="M17.558 16.83a6.653 6.653 0 002.382-5.1c0-2.042-.924-3.87-2.382-5.1a6.653 6.653 0 00-2.383 5.1c0 2.042.925 3.87 2.383 5.1z" fill="#FF5E00"/><rect x="42.379" width="34" height="24" rx="4" fill="#fff"/><path fill-rule="evenodd" clip-rule="evenodd" d="M53.129 15.858h-2.06l-1.544-6.066c-.074-.279-.23-.525-.458-.642a6.573 6.573 0 00-1.888-.642v-.233h3.318c.458 0 .801.35.858.758l.802 4.376 2.059-5.134h2.002l-3.089 7.583zm4.234 0h-1.945l1.602-7.583h1.945l-1.602 7.583zm4.118-5.482c.058-.409.401-.642.802-.642a3.534 3.534 0 011.888.35l.343-1.633a4.8 4.8 0 00-1.773-.351c-1.888 0-3.262 1.05-3.262 2.508 0 1.11.973 1.692 1.66 2.042.743.35 1.03.584.972.934 0 .524-.572.758-1.144.758a4.789 4.789 0 01-2.002-.467l-.344 1.633a5.47 5.47 0 002.117.409c2.117.058 3.433-.992 3.433-2.567 0-1.984-2.69-2.1-2.69-2.974zm9.498 5.482l-1.545-7.583h-1.659a.863.863 0 00-.801.583l-2.86 7h2.002l.4-1.108h2.46l.23 1.108h1.773zm-2.918-5.54l.572 2.857H67.03l1.03-2.858z" fill="#172B85"/><rect x="84.379" width="34" height="24" rx="4" fill="#1F72CD"/><path fill-rule="evenodd" clip-rule="evenodd" d="M90.474 8.5l-3.181 7.247h3.808l.472-1.156h1.08l.472 1.156h4.191v-.882l.374.882h2.168l.374-.9v.9h8.718l1.06-1.126.992 1.126 4.478.01-3.191-3.613L115.48 8.5h-4.408l-1.032 1.105-.962-1.105h-9.484l-.814 1.87-.833-1.87h-3.8v.852l-.423-.852h-3.25zm.737 1.029h1.856l2.11 4.914V9.53h2.034l1.63 3.523 1.502-3.523h2.023v5.2h-1.231l-.01-4.075-1.795 4.075h-1.102l-1.804-4.075v4.075H93.89l-.48-1.166h-2.595l-.479 1.165H88.98l2.231-5.199zm17.288 0h-5.007v5.197h4.929l1.589-1.722 1.531 1.722h1.6l-2.326-2.583 2.326-2.614h-1.531l-1.58 1.703-1.531-1.703zm-16.385.88l-.855 2.077h1.709l-.854-2.077zm12.615 1.146v-.95h3.123l1.363 1.518-1.423 1.526h-3.063v-1.036h2.731v-1.058h-2.731z" fill="#fff"/><rect x="126.379" width="34" height="24" rx="4" fill="#fff"/><path fill-rule="evenodd" clip-rule="evenodd" d="M142.217 19.3h2.596c4.053 0 7.282-3.215 7.409-7.187v-.063c-.064-4.034-3.356-7.312-7.409-7.25h-2.912c-3.863.127-6.902 3.405-6.776 7.314 0 3.908 3.166 7.123 7.092 7.186zm-5.825-7.25c0-3.278 2.723-5.988 6.015-5.988 3.293 0 6.015 2.71 6.015 5.988 0 3.278-2.722 5.99-6.015 5.99-3.292 0-6.015-2.711-6.015-5.99zm6.965 4.035V8.079c2.216.567 3.609 2.774 3.039 4.98a4.113 4.113 0 01-3.039 3.026zm-4.876-5.043a4.142 4.142 0 002.976 5.043V8.079a4.156 4.156 0 00-2.976 2.963z" fill="#0079BE"/><rect x="168.379" width="34" height="24" rx="4" fill="#fff"/><path fill-rule="evenodd" clip-rule="evenodd" d="M182.993 18.448l.221-1.449-.492-.012h-2.347l1.631-10.693a.143.143 0 01.046-.084.13.13 0 01.087-.033h3.959c1.314 0 2.221.282 2.695.84.222.262.363.536.432.837.071.316.072.693.003 1.153l-.006.034v.295l.222.13c.187.102.336.22.45.354.19.224.313.508.365.845.053.347.035.76-.052 1.227-.102.538-.265 1.006-.487 1.389a2.813 2.813 0 01-.77.872 3.06 3.06 0 01-1.037.484 5.024 5.024 0 01-1.297.155h-.308a.916.916 0 00-.602.229.969.969 0 00-.314.579l-.024.13-.39 2.555-.017.093c-.005.03-.013.045-.025.055a.06.06 0 01-.04.015h-1.903z" fill="#28356A"/><path fill-rule="evenodd" clip-rule="evenodd" d="M189.654 9.075a5.966 5.966 0 01-.04.24c-.522 2.77-2.308 3.727-4.59 3.727h-1.161a.571.571 0 00-.558.494l-.763 5.003a.304.304 0 00.294.355h2.06a.5.5 0 00.489-.431l.021-.109.387-2.544.025-.14a.501.501 0 01.49-.432h.308c1.996 0 3.559-.838 4.015-3.261.191-1.013.092-1.859-.413-2.453a1.963 1.963 0 00-.564-.45z" fill="#298FC2"/><path fill-rule="evenodd" clip-rule="evenodd" d="M189.108 8.85a4.091 4.091 0 00-.508-.117 6.243 6.243 0 00-1.023-.077h-3.104a.481.481 0 00-.214.05.51.51 0 00-.275.383l-.66 4.321-.019.126a.57.57 0 01.558-.494h1.161c2.282 0 4.068-.957 4.59-3.727.015-.082.029-.162.04-.24a2.726 2.726 0 00-.546-.225z" fill="#22284F"/><path fill-rule="evenodd" clip-rule="evenodd" d="M183.985 9.089a.506.506 0 01.275-.382.476.476 0 01.214-.05h3.103c.367 0 .711.024 1.024.077a4.636 4.636 0 01.508.116l.117.037c.154.053.297.116.429.188.155-1.024-.001-1.721-.537-2.353-.59-.695-1.656-.992-3.02-.992h-3.959a.572.572 0 00-.559.494l-1.649 10.804a.348.348 0 00.335.406h2.445l1.274-8.345z" fill="#28356A"/><rect x="210.379" width="34" height="24" rx="4" fill="#fff"/><path fill-rule="evenodd" clip-rule="evenodd" d="M226.437 15.528v-2.935h1.514c.621 0 1.145-.208 1.572-.618l.102-.104a2.112 2.112 0 00-.102-2.958 2.162 2.162 0 00-1.572-.63h-2.431v7.245h.917zm0-3.824v-2.53h1.538c.33 0 .643.126.877.357.495.486.506 1.294.028 1.797a1.19 1.19 0 01-.905.376h-1.538zm7.465-.746c-.393-.364-.928-.548-1.606-.548-.871 0-1.526.323-1.959.964l.809.514c.296-.438.7-.658 1.213-.658.324 0 .637.121.882.34.239.209.376.51.376.827v.214c-.353-.197-.797-.3-1.344-.3-.638 0-1.15.15-1.531.456-.382.306-.576.71-.576 1.224-.011.468.188.913.541 1.213.359.324.815.486 1.35.486.632 0 1.133-.283 1.514-.85h.04v.688h.877v-3.056c0-.641-.193-1.15-.586-1.514zm-2.488 3.657a.753.753 0 01-.302-.606c0-.272.125-.497.37-.676.25-.18.564-.272.934-.272.512-.006.911.11 1.196.341 0 .393-.154.734-.456 1.023a1.445 1.445 0 01-1.031.433 1.108 1.108 0 01-.711-.243zm5.044 3.09l3.064-7.134h-.997l-1.417 3.559h-.018l-1.452-3.559h-.996l2.01 4.64-1.139 2.495h.945z" fill="#3C4043"/><path d="M223.272 11.958c0-.283-.023-.566-.069-.844h-3.866v1.6h2.215a1.927 1.927 0 01-.82 1.266v1.04h1.321c.774-.723 1.219-1.791 1.219-3.062z" fill="#4285F4"/><path d="M219.337 16.025c1.105 0 2.039-.37 2.716-1.005l-1.321-1.04c-.37.254-.843.398-1.395.398-1.07 0-1.976-.733-2.3-1.715h-1.361v1.074a4.088 4.088 0 003.661 2.288z" fill="#34A853"/><path d="M217.037 12.663a2.542 2.542 0 010-1.595V10h-1.361a4.174 4.174 0 000 3.731l1.361-1.068z" fill="#FBBC04"/><path d="M219.337 9.352a2.19 2.19 0 011.572.624l1.173-1.19a3.928 3.928 0 00-2.745-1.08c-1.549 0-2.967.89-3.661 2.293l1.361 1.075c.324-.988 1.23-1.722 2.3-1.722z" fill="#EA4335"/><rect x="252.379" width="34" height="24" rx="4" fill="#fff"/><path fill-rule="evenodd" clip-rule="evenodd" d="M261.828 8.343c-.285.352-.742.63-1.198.59-.058-.476.166-.981.428-1.294.285-.361.784-.62 1.189-.639.047.496-.138.981-.419 1.343zm.414.684c-.402-.024-.769.126-1.066.248-.191.078-.352.144-.475.144-.138 0-.306-.07-.495-.148-.248-.103-.531-.22-.827-.214-.681.01-1.313.411-1.66 1.05-.714 1.28-.186 3.173.504 4.213.337.516.742 1.08 1.274 1.061.235-.01.403-.084.578-.16.201-.09.409-.182.735-.182.315 0 .514.09.706.176.182.082.357.161.616.156.552-.01.899-.515 1.237-1.03a4.59 4.59 0 00.549-1.176l.003-.01a1.853 1.853 0 01-1.075-1.7c-.009-1 .739-1.506.856-1.585l.014-.01c-.475-.734-1.217-.813-1.474-.833zm3.819 6.29V7.59h2.783c1.436 0 2.44 1.03 2.44 2.537s-1.023 2.548-2.478 2.548h-1.594v2.642h-1.151zm1.151-6.716h1.327c.999 0 1.57.555 1.57 1.531 0 .977-.571 1.537-1.575 1.537h-1.322V8.6zm7.872 5.789c-.304.604-.975.986-1.698.986-1.07 0-1.817-.664-1.817-1.665 0-.991.723-1.561 2.06-1.646l1.436-.089v-.426c0-.63-.395-.972-1.099-.972-.58 0-1.003.313-1.089.789h-1.037c.034-1.002.937-1.73 2.16-1.73 1.317 0 2.173.718 2.173 1.834v3.846h-1.065v-.927h-.024zm-1.389.07c-.613 0-1.003-.308-1.003-.779 0-.486.375-.768 1.094-.813l1.279-.084v.436c0 .724-.59 1.24-1.37 1.24zm6.012 1.159c-.461 1.353-.989 1.8-2.112 1.8a3.04 3.04 0 01-.437-.03v-.927c.071.01.247.02.338.02.509 0 .794-.224.97-.803l.105-.343-1.951-5.625h1.204l1.355 4.565h.024l1.356-4.565h1.17l-2.022 5.908z" fill="#000"/></svg>