<svg width="26" height="21" viewBox="0 0 26 21" fill="none" xmlns="http://www.w3.org/2000/svg"><path d="M24.422 2.32c.163-.302.297-.618.4-.944A.786.786 0 0023.677.46a8.858 8.858 0 01-2.416.988A5.624 5.624 0 0017.498 0a5.608 5.608 0 00-5.6 5.833 12.95 12.95 0 01-8.42-4.666.787.787 0 00-1.285.103 5.598 5.598 0 00-.097 5.463.922.922 0 00-.314.114.838.838 0 00-.388.707c0 1.666.741 3.196 1.937 4.235l-.052.052a.784.784 0 00-.158.76 5.602 5.602 0 003.206 3.472 9.006 9.006 0 01-5 .85.8.8 0 00-.831.517.787.787 0 00.315.925 14.448 14.448 0 007.81 2.289c9.072 0 14.496-7.37 14.496-14.495l-.002-.24a10.47 10.47 0 002.263-2.438.786.786 0 00-.956-1.161zM21.86 4.896a.786.786 0 00-.326.677c.009.194.013.39.013.584 0 6.355-4.834 12.927-12.925 12.927a12.854 12.854 0 01-4.239-.716 10.384 10.384 0 004.47-2.04.785.785 0 00-.47-1.403 4.04 4.04 0 01-3.22-1.706 5.627 5.627 0 001.09-.182.785.785 0 00-.054-1.527 4.024 4.024 0 01-3.055-2.797c.39.099.791.156 1.192.17a.808.808 0 00.772-.545.782.782 0 00-.31-.892 4.032 4.032 0 01-1.679-4.323 14.51 14.51 0 009.643 4.363.799.799 0 00.641-.28.787.787 0 00.162-.682 4.038 4.038 0 016.874-3.679.785.785 0 00.725.234c.242-.049.482-.105.718-.17a3.7 3.7 0 01-.332.223.785.785 0 00.497 1.45l.267-.034a8.213 8.213 0 01-.454.348z" fill="#fff"/></svg>