<svg width="464" height="232" viewBox="0 0 464 232" fill="none" xmlns="http://www.w3.org/2000/svg"><path d="M220.392 104.488h-61.533v38.796h61.533v-38.796zm62.365-16.772h-61.533v38.796h61.533V87.716z" fill="#008D36"/><path d="M258.422 96.58v5.691h-16.737v11.656h16.451v5.677l11.621-11.368-11.335-11.656zm-71.491 39.084v-5.69h16.737v-11.656h-16.45v-5.691l-11.622 11.382 11.335 11.655z" fill="#fff"/><path d="M10.49 139.796v-31.259l51.889-.055.054 31.259-51.943.055zm49.297-41.724H2.647c-1.733 0-2.592.861-2.592 2.599L0 168.442C.205 170.138 1.05 171 2.55 171h5.198c1.8 0 2.7-.848 2.7-2.558v-18.277h49.339c8.62 0 12.945-4.323 12.986-12.968V111.15c0-8.714-4.338-13.078-12.986-13.078zm80.453 41.669H88.296v-10.41h51.944v10.41zm-2.606-41.67H83.099c-1.732 0-2.592.862-2.592 2.6v5.212c0 1.737.86 2.599 2.592 2.599h57.127v10.411h-49.38c-8.62 0-12.93 4.323-12.93 12.968v5.308c0 8.646 4.324 12.969 12.985 12.969h57.127c1.733 0 2.592-.862 2.592-2.599V111.15c0-8.714-4.324-13.078-12.986-13.078zm222.015 2.928h-52.148V90.534h52.148v10.465zm-2.606-20.917h-46.882c-8.69 0-13.041 4.364-13.041 13.079v26.101c0 8.755 4.324 13.133 12.986 13.133h54.754c1.773 0 2.659-.876 2.659-2.613v-5.226c0-1.737-.886-2.613-2.659-2.613h-57.359v-10.465h60.018c1.733 0 2.606-.875 2.606-2.613V93.147c.013-8.714-4.352-13.065-13.082-13.065zm93.917-.013h-73.005c-1.732 0-2.605.875-2.605 2.613v47.059c0 1.751.873 2.613 2.605 2.613h5.211c1.732-.028 2.605-.903 2.605-2.613l.055-39.276h28.631v39.276c0 1.751.873 2.613 2.606 2.613h5.21c1.733 0 2.606-.876 2.606-2.613V90.534h28.672v39.221c0 1.751.887 2.613 2.66 2.613h5.17c1.732 0 2.605-.876 2.605-2.613V93.147c.014-8.714-4.337-13.078-13.026-13.078zm-170.304 42.736l-52.094-.055V91.327l52.149.055-.055 31.423zm-63.074 16.868h-52.148l.054-31.382h52.094v31.382zm60.469-58.756h-49.543V62.558c0-1.71-.9-2.558-2.715-2.558h-5.21c-1.501 0-2.346.862-2.551 2.558l.027 35.226h-49.965c-8.73 0-13.095 4.378-13.095 13.133v26.143c0 8.687 4.365 13.023 13.095 13.023h49.542v10.452h-54.808c-1.732 0-2.605.875-2.605 2.613v5.225c0 1.738.873 2.613 2.605 2.613h52.148c8.69 0 13.041-4.35 13.041-13.078v-24.692h50.047c8.689 0 13.041-4.364 13.041-13.078V93.995c-.014-8.714-4.365-13.078-13.054-13.078z" fill="#3C3C3B"/></svg>